<svg id="Capa_1" enable-background="new 0 0 512 512" height="512" viewBox="0 0 512 512" width="512" xmlns="http://www.w3.org/2000/svg"><path d="m430 504.5h-288c-8.284 0-15-6.716-15-15v-382c0-8.284 6.716-15 15-15h288c8.284 0 15 6.716 15 15v382c0 8.284-6.716 15-15 15z" fill="#bdbdbd"/><path d="m400 462h-288c-8.284 0-15-6.716-15-15v-382c0-8.284 6.716-15 15-15h288c8.284 0 15 6.716 15 15v382c0 8.284-6.716 15-15 15z" fill="#d4d4d4"/><path d="m370 419.5h-288c-8.284 0-15-6.716-15-15v-382c0-8.284 6.716-15 15-15h288c8.284 0 15 6.716 15 15v382c0 8.284-6.716 15-15 15z" fill="#f5f5f5"/><path d="m355 7.5v412h15c8.284 0 15-6.716 15-15v-382c0-8.284-6.716-15-15-15z" fill="#e6e6e6"/><path d="m172.5 341.545h-52c-2.209 0-4-1.791-4-4v-52c0-2.209 1.791-4 4-4h52c2.209 0 4 1.791 4 4v52c0 2.209-1.791 4-4 4z" fill="#ff3d7a"/><circle cx="226" cy="94" fill="#d47f6c" r="36"/><path d="m226 58c-5.355 0-10.432 1.178-15 3.275 12.391 5.689 21 18.198 21 32.725s-8.609 27.036-21 32.725c4.568 2.097 9.645 3.275 15 3.275 19.882 0 36-16.118 36-36s-16.118-36-36-36z" fill="#a65d4e"/><path d="m258 230h-64c-13.255 0-24-10.745-24-24v-34c0-23.196 18.804-42 42-42h28c23.196 0 42 18.804 42 42v34c0 13.255-10.745 24-24 24z" fill="#8c9eff"/><path d="m240 130h-28c-.335 0-.667.017-1 .025 22.732.533 41 19.114 41 41.975v34c0 13.255-10.745 24-24 24h30c13.255 0 24-10.745 24-24v-34c0-23.196-18.804-42-42-42z" fill="#7488ed"/><path d="m235.702 156.58h-19.404l-5.298-26.58h30z" fill="#ffb300"/><path d="m246 200.948-20 9.632-20-9.632 10.298-44.368h19.404z" fill="#ffca28"/><path d="m445 166.813c4.142 0 7.5-3.358 7.5-7.5v-51.813c0-12.407-10.093-22.5-22.5-22.5h-7.5v-20c0-12.407-10.093-22.5-22.5-22.5h-7.5v-20c0-12.407-10.093-22.5-22.5-22.5h-288c-12.407 0-22.5 10.093-22.5 22.5v41.092c0 4.142 3.358 7.5 7.5 7.5s7.5-3.358 7.5-7.5v-41.092c0-4.136 3.364-7.5 7.5-7.5h288c4.136 0 7.5 3.364 7.5 7.5v382c0 4.136-3.364 7.5-7.5 7.5h-17.759c-4.142 0-7.5 3.358-7.5 7.5s3.358 7.5 7.5 7.5h17.759c12.407 0 22.5-10.093 22.5-22.5v-347h7.5c4.136 0 7.5 3.364 7.5 7.5v382c0 4.136-3.364 7.5-7.5 7.5h-288c-4.136 0-7.5-3.364-7.5-7.5v-20h214.997c4.142 0 7.5-3.358 7.5-7.5s-3.358-7.5-7.5-7.5h-237.497c-4.136 0-7.5-3.364-7.5-7.5v-308.814c0-4.142-3.358-7.5-7.5-7.5s-7.5 3.358-7.5 7.5v308.814c0 12.407 10.093 22.5 22.5 22.5h7.5v20c0 12.407 10.093 22.5 22.5 22.5h7.5v20c0 12.407 10.093 22.5 22.5 22.5h288c12.407 0 22.5-10.093 22.5-22.5v-297.815c0-4.142-3.358-7.5-7.5-7.5s-7.5 3.358-7.5 7.5v297.815c0 4.136-3.364 7.5-7.5 7.5h-288c-4.136 0-7.5-3.364-7.5-7.5v-20h265.5c12.407 0 22.5-10.093 22.5-22.5v-347h7.5c4.136 0 7.5 3.364 7.5 7.5v51.813c0 4.142 3.358 7.5 7.5 7.5z"/><path d="m109 285.545v52c0 6.341 5.159 11.5 11.5 11.5h52c6.341 0 11.5-5.159 11.5-11.5v-52c0-6.341-5.159-11.5-11.5-11.5h-52c-6.341 0-11.5 5.159-11.5 11.5zm15 3.5h45v45h-45z"/><path d="m334.412 286.06h-120.558c-4.142 0-7.5 3.358-7.5 7.5s3.358 7.5 7.5 7.5h120.558c4.142 0 7.5-3.358 7.5-7.5s-3.358-7.5-7.5-7.5z"/><path d="m334.412 317.163h-120.558c-4.142 0-7.5 3.358-7.5 7.5s3.358 7.5 7.5 7.5h120.558c4.142 0 7.5-3.358 7.5-7.5s-3.358-7.5-7.5-7.5z"/><path d="m162.5 172v34c0 17.369 14.131 31.5 31.5 31.5h64c17.369 0 31.5-14.131 31.5-31.5v-34c0-21.608-13.917-40.025-33.257-46.762 8.17-7.913 13.257-18.993 13.257-31.238 0-23.986-19.514-43.5-43.5-43.5s-43.5 19.514-43.5 43.5c0 12.245 5.087 23.325 13.257 31.238-19.34 6.737-33.257 25.154-33.257 46.762zm59.756-7.92h7.487l7.593 32.716-11.336 5.459-11.337-5.46zm9.601-26.58-2.308 11.58h-7.099l-2.308-11.58zm-5.857-72c15.715 0 28.5 12.785 28.5 28.5s-12.785 28.5-28.5 28.5-28.5-12.785-28.5-28.5 12.785-28.5 28.5-28.5zm-48.5 106.5c0-16.622 11.816-30.536 27.49-33.784l3.636 18.244-9.932 42.792c-.793 3.418.89 6.93 4.051 8.453l20 9.632c2.057.99 4.452.99 6.509 0l20-9.632c3.162-1.523 4.845-5.035 4.051-8.453l-9.932-42.792 3.636-18.244c15.674 3.248 27.49 17.162 27.49 33.784v34c0 9.098-7.402 16.5-16.5 16.5h-64c-9.098 0-16.5-7.402-16.5-16.5v-34z"/></svg>