<svg height="496pt" viewBox="0 0 496 496" width="496pt" xmlns="http://www.w3.org/2000/svg"><path d="m401.839844 360h70.160156c8.800781 0 16 7.199219 16 16 0 5.601562-2.960938 10.640625-7.359375 13.441406-2.480469 1.679688-5.441406 2.558594-8.640625 2.558594h-43.441406l-20.558594-16c0-6.160156-2.320312-11.761719-6.160156-16zm0 0" fill="#aab2bd"/><path d="m328 360h38.160156c-3.839844 4.238281-6.160156 9.839844-6.160156 16l-20.558594 16h-43.441406c-3.199219 0-6.160156-.878906-8.640625-2.558594-4.398437-2.800781-7.359375-7.839844-7.359375-13.441406 0-8.800781 7.199219-16 16-16zm0 0" fill="#aab2bd"/><g fill="#ff826e"><path d="m480.640625 389.441406-9.039063 36-43.042968-33.441406h43.441406c3.199219 0 6.160156-.878906 8.640625-2.558594zm0 0"/><path d="m461.199219 456c.878906 0 1.839843-.078125 2.722656-.238281l.078125.238281-4.960938 19.921875c-1.757812 7.117187-8.160156 12.078125-15.519531 12.078125h-119.039062c-7.359375 0-13.761719-4.960938-15.519531-12.078125l-4.960938-19.921875.078125-.238281c.882813.160156 1.84375.238281 2.722656.238281 3.359375 0 6.640625-1.121094 9.277344-3.199219l67.921875-52.800781 67.921875 52.800781c2.636719 2.078125 5.917969 3.199219 9.277344 3.199219zm0 0"/><path d="m339.441406 392-43.042968 33.441406-9.039063-36c2.480469 1.679688 5.441406 2.558594 8.640625 2.558594zm0 0"/></g><path d="m408 376c0 13.28125-10.71875 24-24 24s-24-10.71875-24-24c0-6.160156 2.320312-11.761719 6.160156-16h.078125c4.242188-4.960938 10.640625-8 17.761719-8s13.519531 3.039062 17.761719 8h.078125c3.839844 4.238281 6.160156 9.839844 6.160156 16zm0 0" fill="#fcd770"/><path d="m471.601562 425.441406c5.039063 3.917969 7.039063 10.636719 5.039063 16.636719l-1.199219 3.601563c-1.761718 5.28125-6.242187 9.121093-11.519531 10.082031-.882813.160156-1.84375.238281-2.722656.238281-3.359375 0-6.640625-1.121094-9.277344-3.199219l-67.921875-52.800781c13.28125 0 24-10.71875 24-24l20.558594 16zm0 0" fill="#e6e9ed"/><path d="m360 376c0 13.28125 10.71875 24 24 24l-67.921875 52.800781c-2.636719 2.078125-5.917969 3.199219-9.277344 3.199219-.878906 0-1.839843-.078125-2.722656-.238281-5.277344-.960938-9.757813-4.800781-11.519531-10.082031l-1.199219-3.601563c-.238281-.71875-.398437-1.359375-.480469-2.078125-1.039062-5.441406 1.042969-11.121094 5.519532-14.558594l43.042968-33.441406zm0 0" fill="#e6e9ed"/><path d="m88 8v80h-80v352h282.878906c-1.039062-5.441406 1.042969-11.121094 5.519532-14.558594l-9.039063-36c-4.398437-2.800781-7.359375-7.839844-7.359375-13.441406 0-8.800781 7.199219-16 16-16h32v-158.878906c-14.800781-14.5625-24-34.800782-24-57.121094s9.199219-42.558594 24-57.121094v-78.878906zm0 0" fill="#e6e9ed"/><path d="m72 192v128h192v-128zm0 0" fill="#ecc19c"/><path d="m88 72v16h-80l80-80zm0 0" fill="#ff826e"/><path d="m328 86.878906c14.398438-14.160156 34.160156-22.878906 56-22.878906 44.160156 0 80 35.839844 80 80s-35.839844 80-80 80c-21.839844 0-41.601562-8.71875-56-22.878906-14.800781-14.5625-24-34.800782-24-57.121094s9.199219-42.558594 24-57.121094zm0 0" fill="#fcd770"/><path d="m384 168c-4.40625 0-8-3.585938-8-8h-16c0 10.414062 6.710938 19.214844 16 22.527344v17.472656h16v-17.472656c9.289062-3.3125 16-12.113282 16-22.527344 0-13.230469-10.769531-24-24-24-4.40625 0-8-3.585938-8-8s3.59375-8 8-8 8 3.585938 8 8h16c0-10.414062-6.710938-19.214844-16-22.527344v-17.472656h-16v17.472656c-9.289062 3.3125-16 12.113282-16 22.527344 0 13.230469 10.769531 24 24 24 4.40625 0 8 3.585938 8 8s-3.59375 8-8 8zm0 0"/><path d="m112 32h192v16h-192zm0 0"/><path d="m112 64h16v16h-16zm0 0"/><path d="m144 64h160v16h-160zm0 0"/><path d="m112 96h168v16h-168zm0 0"/><path d="m496 376c0-13.230469-10.769531-24-24-24h-67.054688c-5.625-4.921875-12.898437-8-20.945312-8s-15.3125 3.078125-20.945312 8h-27.054688v-134.335938c13.816406 9.03125 30.289062 14.335938 48 14.335938 48.519531 0 88-39.480469 88-88s-39.480469-88-88-88c-17.710938 0-34.183594 5.304688-48 14.335938v-70.335938h-251.3125l-84.6875 84.6875v363.3125h284.894531l.082031.246094c2.0625 6.1875 6.582032 10.992187 12.230469 13.59375l3.992188 15.984375c2.6875 10.695312 12.265625 18.175781 23.296875 18.175781h119.015625c11.03125 0 20.609375-7.480469 23.289062-18.175781l3.992188-15.976563c5.648437-2.609375 10.167969-7.40625 12.230469-13.601562l1.207031-3.613282c2.472656-7.433593.90625-15.457031-3.773438-21.449218l7.304688-29.222656c5.007812-4.410157 8.238281-10.785157 8.238281-17.960938zm-26.953125 63.558594-1.207031 3.625c-1.457032 4.351562-7.351563 6.152344-11 3.328125l-55.894532-43.472657c5.085938-3.199218 9.167969-7.773437 11.796876-13.222656l53.953124 41.96875c2.34375 1.824219 3.296876 4.957032 2.351563 7.773438zm-157.886719 6.953125c-3.625 2.824219-9.542968 1.023437-11-3.328125l-1.207031-3.625c-.945313-2.824219 0-5.949219 2.351563-7.78125l53.953124-41.96875c2.628907 5.449218 6.710938 10.023437 11.796876 13.222656zm41.273438-74.75-15.746094 12.238281h-40.6875c-4.40625 0-8-3.585938-8-8s3.59375-8 8-8h57.136719c-.320313 1.222656-.535157 2.480469-.703125 3.761719zm-36.320313 28.238281-14.960937 11.640625-2.90625-11.640625zm135.765625 0h17.875l-2.914062 11.640625zm28.121094-24c0 4.414062-3.59375 8-8 8h-40.6875l-15.746094-12.238281c-.167968-1.28125-.382812-2.53125-.703125-3.761719h57.136719c4.40625 0 8 3.585938 8 8zm-96-16c8.824219 0 16 7.175781 16 16s-7.175781 16-16 16-16-7.175781-16-16 7.175781-16 16-16zm72-216c0 39.703125-32.304688 72-72 72s-72-32.296875-72-72 32.304688-72 72-72 72 32.296875 72 72zm-376-116.6875v52.6875h-52.6875zm-64 68.6875h80v-80h224v67.792969c-14.832031 15.757812-24 36.910156-24 60.207031s9.167969 44.457031 24 60.207031v147.792969h-24c-13.230469 0-24 10.769531-24 24 0 7.175781 3.230469 13.550781 8.238281 17.960938l7.304688 29.222656c-2.054688 2.625-3.488281 5.625-4.253907 8.824218h-267.289062zm427.503906 384h-19.503906v-32h-16v32h-16v-48h-16v48h-16v-32h-16v32h-19.503906c-3.671875 0-6.871094-2.496094-7.761719-6.054688l-2.773437-11.113281c2.527343-.824219 4.917968-2.054687 7.03125-3.695312l63.007812-49.007813 63.007812 49.007813c2.113282 1.640625 4.503907 2.871093 7.03125 3.695312l-2.773437 11.105469c-.890625 3.566406-4.082031 6.0625-7.761719 6.0625zm0 0"/><path d="m376 312h16v16h-16zm0 0"/><path d="m240 400h16v16h-16zm0 0"/><path d="m32 400h192v16h-192zm0 0"/><path d="m32 368h224v16h-224zm0 0"/><path d="m64 328h208v-144h-208zm16-128h176v112h-176zm0 0"/><path d="m32 128h248v16h-248zm0 0"/><path d="m160 248h16v16h-16zm0 0"/><path d="m192 248h16v16h-16zm0 0"/><path d="m224 248h16v16h-16zm0 0"/><path d="m128 248h16v16h-16zm0 0"/><path d="m96 248h16v16h-16zm0 0"/><path d="m376 280h16v16h-16zm0 0"/><path d="m376 248h16v16h-16zm0 0"/></svg>