<svg height="496pt" viewBox="0 0 496 496" width="496pt" xmlns="http://www.w3.org/2000/svg"><path d="m312 464c-17.648438 0-32-14.351562-32-32v-48c0-17.648438 14.351562-32 32-32s32 14.351562 32 32v48c0 17.648438-14.351562 32-32 32zm0 0" fill="#f0bc5e"/><path d="m248 80c-48.519531 0-88 39.480469-88 88 0 27.945312 12.832031 53.601562 35.183594 70.398438h105.625c22.359375-16.796876 35.191406-42.453126 35.191406-70.398438 0-48.519531-39.480469-88-88-88zm0 0" fill="#f0bc5e"/><path d="m152 464h48v-48h-48zm16-32h16v16h-16zm0 0"/><path d="m216 464h48v-48h-48zm16-32h16v16h-16zm0 0"/><path d="m200 352h-48v48h48zm-16 32h-16v-16h16zm0 0"/><path d="m264 352h-48v48h48zm-16 32h-16v-16h16zm0 0"/><path d="m200 288h-48v48h48zm-16 32h-16v-16h16zm0 0"/><path d="m264 288h-48v48h48zm-16 32h-16v-16h16zm0 0"/><path d="m328 336v-48h-48v48zm-32-32h16v16h-16zm0 0"/><path d="m344 200h-14.039062c-2.175782 5.59375-4.839844 10.96875-8.121094 16h6.160156v8h-160v-8h6.167969c-3.28125-5.03125-5.953125-10.40625-8.121094-16h-14.046875v72h192zm-176 56v-16h160v16zm0 0"/><path d="m256 184h-16c-4.40625 0-8-3.59375-8-8h-16c0 13.230469 10.769531 24 24 24v16h16v-16c13.230469 0 24-10.769531 24-24s-10.769531-24-24-24h-16c-4.40625 0-8-3.59375-8-8s3.59375-8 8-8h16c4.40625 0 8 3.59375 8 8h16c0-13.230469-10.769531-24-24-24v-16h-16v16c-13.230469 0-24 10.769531-24 24s10.769531 24 24 24h16c4.40625 0 8 3.59375 8 8s-3.59375 8-8 8zm0 0"/><path d="m376 364.6875v-180.6875c0-13.230469-10.769531-24-24-24h-16.40625c.238281 2.640625.40625 5.296875.40625 8 0 2.695312-.222656 5.351562-.457031 8h16.457031c4.40625 0 8 3.59375 8 8v288c0 4.40625-3.59375 8-8 8h-208c-4.40625 0-8-3.59375-8-8v-288c0-4.40625 3.59375-8 8-8h16.457031c-.234375-2.648438-.457031-5.304688-.457031-8 0-2.703125.167969-5.359375.40625-8h-16.40625c-13.230469 0-24 10.769531-24 24v88l-12-16h-12v-56h-16v56h-16v-80h-16v80h-16v-104h-16v104h-16v16h100l20 26.664062v173.335938c0 13.230469 10.769531 24 24 24h208c13.230469 0 24-10.769531 24-24v-84.6875l27.3125-27.3125h92.6875v-16h-99.3125zm0 0"/><path d="m456 312h16v16h-16zm0 0"/><path d="m456 280h16v16h-16zm0 0"/><path d="m472 219.3125 10.34375 10.34375 11.3125-11.3125-29.65625-29.65625-29.65625 29.65625 11.3125 11.3125 10.34375-10.34375v44.6875h16zm0 0"/><path d="m400 240h16v16h-16zm0 0"/><path d="m400 208h16v16h-16zm0 0"/><path d="m416 147.3125 10.34375 10.34375 11.3125-11.3125-29.65625-29.65625-29.65625 29.65625 11.3125 11.3125 10.34375-10.34375v44.6875h16zm0 0"/><path d="m24 112c13.230469 0 24-10.769531 24-24 0-2.367188-.449219-4.609375-1.089844-6.769531l51.523438-37.460938c3.863281 2.65625 8.527344 4.230469 13.566406 4.230469 9.425781 0 17.511719-5.503906 21.433594-13.425781l91.199218 10.730469c2.429688 10.679687 11.960938 18.695312 23.367188 18.695312 7.664062 0 14.433594-3.679688 18.824219-9.296875l77.222656 25.746094c.242187 13.023437 10.875 23.550781 23.953125 23.550781 13.230469 0 24-10.769531 24-24 0-1.246094-.183594-2.449219-.367188-3.640625l64.328126-34.632813c4.253906 3.859376 9.855468 6.273438 16.039062 6.273438 13.230469 0 24-10.769531 24-24s-10.769531-24-24-24-24 10.769531-24 24c0 1.246094.183594 2.449219.367188 3.640625l-64.328126 34.632813c-4.253906-3.859376-9.855468-6.273438-16.039062-6.273438-7.664062 0-14.433594 3.679688-18.824219 9.296875l-77.222656-25.746094c-.242187-13.023437-10.875-23.550781-23.953125-23.550781-9.425781 0-17.511719 5.503906-21.433594 13.425781l-91.199218-10.730469c-2.429688-10.679687-11.960938-18.695312-23.367188-18.695312-13.230469 0-24 10.769531-24 24 0 2.367188.449219 4.609375 1.089844 6.769531l-51.523438 37.46875c-3.863281-2.664062-8.527344-4.238281-13.566406-4.238281-13.230469 0-24 10.769531-24 24s10.769531 24 24 24zm448-96c4.40625 0 8 3.59375 8 8s-3.59375 8-8 8-8-3.59375-8-8 3.59375-8 8-8zm-104 56c4.40625 0 8 3.59375 8 8s-3.59375 8-8 8-8-3.59375-8-8 3.59375-8 8-8zm-120-40c4.40625 0 8 3.59375 8 8s-3.59375 8-8 8-8-3.59375-8-8 3.59375-8 8-8zm-136-16c4.40625 0 8 3.59375 8 8s-3.59375 8-8 8-8-3.59375-8-8 3.59375-8 8-8zm-88 64c4.40625 0 8 3.59375 8 8s-3.59375 8-8 8-8-3.59375-8-8 3.59375-8 8-8zm0 0"/></svg>