<svg height="496pt" viewBox="0 0 496 496" width="496pt" xmlns="http://www.w3.org/2000/svg"><path d="m447.679688 240.878906 19.519531 7.359375c12.5625 4.640625 20.800781 16.5625 20.800781 29.921875v49.839844h-48v-40h-80v40h-48v-49.839844c0-13.359375 8.238281-25.28125 20.800781-29.921875l19.519531-7.359375 23.679688-8.878906 24 32 24-32zm0 0" fill="#ff826e"/><path d="m336 414.160156v49.839844h-48v-40h-80v40h-48v-49.839844c0-13.359375 8.238281-25.28125 20.800781-29.921875l43.199219-16.238281c0 6.640625 2.71875 12.640625 7.039062 16.960938 4.320313 4.320312 10.320313 7.039062 16.960938 7.039062 13.28125 0 24-10.71875 24-24l43.199219 16.238281c12.5625 4.640625 20.800781 16.5625 20.800781 29.921875zm0 0" fill="#b4dd7f"/><path d="m96 264 24-32 43.199219 16.238281c12.5625 4.640625 20.800781 16.5625 20.800781 29.921875v49.839844h-48v-40h-80v40h-48v-49.839844c0-13.359375 8.238281-25.28125 20.800781-29.921875l43.199219-16.238281zm0 0" fill="#ff826e"/><path d="m440 288v64h-80v-64zm0 0" fill="#e6e9ed"/><path d="m288 424v64h-80v-64zm0 0" fill="#e6e9ed"/><path d="m136 288v64h-80v-64zm0 0" fill="#e6e9ed"/><path d="m312 278.160156v25.839844c0-6.640625-2.71875-12.640625-7.039062-16.960938-4.320313-4.320312-10.320313-7.039062-16.960938-7.039062h-1.359375c-14.480469 0-28.402344-5.761719-38.640625-16-10.238281 10.238281-24.160156 16-38.640625 16h-1.359375c-13.28125 0-24 10.71875-24 24v-32c0-17.679688 7.199219-33.679688 18.71875-45.28125 11.601562-11.519531 27.601562-18.71875 45.28125-18.71875 35.359375 0 64 28.640625 64 64zm0 0" fill="#fcd770"/><path d="m480 224s-2 4-7.039062 8c-4.960938 4-12.960938 8-24.960938 8l-.320312.878906-23.679688-8.878906v-16c1.519531-1.121094 2.960938-2.320312 4.320312-3.679688 5.441407-5.519531 9.359376-12.558593 10.878907-20.398437l.800781.078125c13.28125 0 24-10.71875 24-24v17.359375c0 14.480469 5.761719 28.402344 16 38.640625zm0 0" fill="#b27946"/><path d="m376 216v16l-23.679688 8.878906-.320312-.878906c-24 0-32-16-32-16 10.238281-10.238281 16-24.160156 16-38.640625v-17.359375c0 6.640625 2.71875 12.640625 7.039062 16.960938 4.320313 4.320312 10.320313 7.039062 16.960938 7.039062l.800781-.078125c1.917969 9.757813 7.519531 18.238281 15.199219 24.078125zm0 0" fill="#b27946"/><path d="m464 136v32c0-6.640625-2.71875-12.640625-7.039062-16.960938-4.320313-4.320312-10.320313-7.039062-16.960938-7.039062h-1.359375c-14.480469 0-28.402344-5.761719-38.640625-16-10.238281 10.238281-24.160156 16-38.640625 16h-1.359375c-13.28125 0-24 10.71875-24 24v-32c0-35.359375 28.640625-64 64-64 17.679688 0 33.679688 7.199219 45.28125 18.71875 11.519531 11.601562 18.71875 27.601562 18.71875 45.28125zm0 0" fill="#b27946"/><path d="m160 136v32c0-6.640625-2.71875-12.640625-7.039062-16.960938-4.320313-4.320312-10.320313-7.039062-16.960938-7.039062h-80c-13.28125 0-24 10.71875-24 24v-32c0-17.679688 7.199219-33.679688 18.71875-45.28125 11.601562-11.519531 27.601562-18.71875 45.28125-18.71875 35.359375 0 64 28.640625 64 64zm0 0" fill="#b27946"/><g fill="#f0d0b4"><path d="m248 360c4.960938 0 9.679688-.878906 24-8v16c0 13.28125-10.71875 24-24 24-6.640625 0-12.640625-2.71875-16.960938-7.039062-4.320312-4.320313-7.039062-10.320313-7.039062-16.960938v-16c6.640625 5.039062 14.960938 8 24 8zm0 0"/><path d="m312 304c0 13.28125-10.71875 24-24 24l-.800781-.078125c.5625-2.5625.800781-5.203125.800781-7.921875v-40c6.640625 0 12.640625 2.71875 16.960938 7.039062 4.320312 4.320313 7.039062 10.320313 7.039062 16.960938zm0 0"/><path d="m288 280v40c0 2.71875-.238281 5.359375-.800781 7.921875-1.519531 7.839844-5.4375 14.878906-10.878907 20.398437-1.359374 1.359376-2.800781 2.558594-4.320312 3.679688-14.320312 7.121094-19.039062 8-24 8-9.039062 0-17.359375-2.960938-24-8-7.679688-5.839844-13.28125-14.320312-15.199219-24.078125-.5625-2.5625-.800781-5.203125-.800781-7.921875v-40h1.359375c14.480469 0 28.402344-5.761719 38.640625-16 10.238281 10.238281 24.160156 16 38.640625 16zm0 0"/><path d="m208 320c0 2.71875.238281 5.359375.800781 7.921875l-.800781.078125c-6.640625 0-12.640625-2.71875-16.960938-7.039062-4.320312-4.320313-7.039062-10.320313-7.039062-16.960938 0-13.28125 10.71875-24 24-24zm0 0"/><path d="m400 224c4.960938 0 9.679688-.878906 24-8v16l-24 32-24-32v-16c6.640625 5.039062 14.960938 8 24 8zm0 0"/><path d="m464 168c0 13.28125-10.71875 24-24 24l-.800781-.078125c.5625-2.5625.800781-5.203125.800781-7.921875v-40c6.640625 0 12.640625 2.71875 16.960938 7.039062 4.320312 4.320313 7.039062 10.320313 7.039062 16.960938zm0 0"/><path d="m440 144v40c0 2.71875-.238281 5.359375-.800781 7.921875-1.519531 7.839844-5.4375 14.878906-10.878907 20.398437-1.359374 1.359376-2.800781 2.558594-4.320312 3.679688-14.320312 7.121094-19.039062 8-24 8-9.039062 0-17.359375-2.960938-24-8-7.679688-5.839844-13.28125-14.320312-15.199219-24.078125-.5625-2.5625-.800781-5.203125-.800781-7.921875v-40h1.359375c14.480469 0 28.402344-5.761719 38.640625-16 10.238281 10.238281 24.160156 16 38.640625 16zm0 0"/><path d="m360 184c0 2.71875.238281 5.359375.800781 7.921875l-.800781.078125c-6.640625 0-12.640625-2.71875-16.960938-7.039062-4.320312-4.320313-7.039062-10.320313-7.039062-16.960938 0-13.28125 10.71875-24 24-24zm0 0"/><path d="m96 224c4.960938 0 9.679688-.878906 24-8v16l-24 32-24-32v-16c6.640625 5.039062 14.960938 8 24 8zm0 0"/><path d="m160 168c0 13.28125-10.71875 24-24 24l-.800781-.078125c.5625-2.5625.800781-5.203125.800781-7.921875v-40c6.640625 0 12.640625 2.71875 16.960938 7.039062 4.320312 4.320313 7.039062 10.320313 7.039062 16.960938zm0 0"/><path d="m136 144v40c0 2.71875-.238281 5.359375-.800781 7.921875-1.519531 7.839844-5.4375 14.878906-10.878907 20.398437-1.359374 1.359376-2.800781 2.558594-4.320312 3.679688-14.320312 7.121094-19.039062 8-24 8-9.039062 0-17.359375-2.960938-24-8-7.679688-5.839844-13.28125-14.320312-15.199219-24.078125-.5625-2.5625-.800781-5.203125-.800781-7.921875v-40zm0 0"/><path d="m56 184c0 2.71875.238281 5.359375.800781 7.921875l-.800781.078125c-6.640625 0-12.640625-2.71875-16.960938-7.039062-4.320312-4.320313-7.039062-10.320313-7.039062-16.960938 0-13.28125 10.71875-24 24-24zm0 0"/></g><path d="m96 40v32h-48c-8.800781 0-16-7.199219-16-16v-32c0-8.800781 7.199219-16 16-16h48zm0 0" fill="#aab2bd"/><path d="m96 8h304v32h-304zm0 0" fill="#b4dd7f"/><path d="m96 40h304v32h-304zm0 0" fill="#fcd770"/><path d="m464 40-64 32v-64zm0 0" fill="#969faa"/><path d="m496 278.175781c0-15.640625-9.34375-29.816406-23.425781-36.273437 10.1875-5.824219 14.320312-13.796875 14.585937-14.328125l2.574219-5.160157-4.078125-4.078124c-8.808594-8.800782-13.65625-20.503907-13.65625-32.96875v-49.367188c0-30.953125-19.671875-57.328125-47.144531-67.488281l57.03125-28.511719-80-40h-353.886719c-13.230469 0-24 10.769531-24 24v32c0 13.230469 10.769531 24 24 24h2.847656c-16.351562 13.207031-26.847656 33.390625-26.847656 56v32c0 15.792969 11.527344 28.871094 26.601562 31.457031 2.679688 7.855469 7.34375 14.78125 13.398438 20.222657v6.777343l-38.039062 14.261719c-15.527344 5.824219-25.960938 20.875-25.960938 37.457031v57.824219h48v24h96v-24h48v-4.449219c3.230469 1.890625 6.777344 3.25 10.601562 3.90625 2.679688 7.855469 7.34375 14.78125 13.398438 20.222657v6.777343l-38.039062 14.261719c-15.527344 5.824219-25.960938 20.882812-25.960938 37.457031v57.824219h48v24h96v-24h48v-57.824219c0-16.574219-10.433594-31.632812-25.960938-37.464843l-38.039062-14.253907v-6.777343c6.054688-5.433594 10.71875-12.359376 13.398438-20.222657 3.824218-.65625 7.371093-2.015625 10.601562-3.90625v4.449219h48v24h96v-24h48zm-128-51.71875-16 6v-.457031c-11.351562 0-18.078125-4.273438-21.617188-7.632812 6.800782-8.511719 11.136719-18.550782 12.800782-29.261719 3.433594 2.132812 7.28125 3.636719 11.417968 4.351562 2.679688 7.855469 7.34375 14.78125 13.398438 20.222657zm-51.664062 23.007813c-9.488282-28.6875-36.511719-49.464844-68.335938-49.464844s-58.847656 20.777344-68.335938 49.464844c-3.855468-3.738282-8.417968-6.792969-13.625-8.746094l-38.039062-14.261719v-6.777343c6.054688-5.433594 10.71875-12.359376 13.398438-20.222657 15.074218-2.585937 26.601562-15.664062 26.601562-31.457031v-32c0-22.609375-10.496094-42.792969-26.847656-56h213.695312c-16.351562 13.207031-26.847656 33.390625-26.847656 56v49.367188c0 12.457031-4.847656 24.167968-13.65625 32.976562l-4.078125 4.082031 2.574219 5.160157c.265625.527343 4.398437 8.492187 14.585937 14.324218-4.152343 1.898438-7.890625 4.449219-11.089843 7.554688zm-28.335938 22.535156h-1.367188c-12.457031 0-24.167968-4.847656-32.976562-13.65625l-5.65625-5.65625-5.65625 5.65625c-8.808594 8.808594-20.519531 13.65625-32.976562 13.65625h-1.367188c-5.855469 0-11.273438 1.695312-16 4.449219v-4.449219c0-30.878906 25.121094-56 56-56s56 25.121094 56 56v4.449219c-4.726562-2.753907-10.144531-4.449219-16-4.449219zm-224-88v-32h64v32c0 17.648438-14.351562 32-32 32s-32-14.351562-32-32zm80-29.777344c4.761719 2.777344 8 7.882813 8 13.777344s-3.238281 11-8 13.777344zm-40-106.222656h288v16h-288zm288-16h-288v-16h288zm56 149.777344v-27.554688c4.761719 2.777344 8 7.882813 8 13.777344s-3.238281 11-8 13.777344zm-48 34.222656c-17.648438 0-32-14.351562-32-32v-32.550781c11.710938-1.234375 22.761719-5.503907 32-12.769531 9.238281 7.273437 20.289062 11.542968 32 12.769531v32.550781c0 17.648438-14.351562 32-32 32zm-48-34.222656c-4.761719-2.777344-8-7.882813-8-13.777344s3.238281-11 8-13.777344zm32 47.421875c5.015625 1.785156 10.382812 2.800781 16 2.800781s10.984375-1.023438 16-2.800781v.136719l-16 21.335937-16-21.335937zm48-9.519531c6.054688-5.433594 10.71875-12.359376 13.398438-20.222657 4.136718-.714843 7.976562-2.210937 11.417968-4.351562 1.664063 10.710937 6 20.75 12.792969 29.253906-3.554687 3.382813-10.273437 7.640625-21.609375 7.640625v.457031l-16-6zm24-83.679688v4.449219c-4.726562-2.753907-10.144531-4.449219-16-4.449219h-1.367188c-12.457031 0-24.167968-4.847656-32.976562-13.65625l-5.65625-5.65625-5.65625 5.65625c-8.808594 8.808594-20.511719 13.65625-32.976562 13.65625h-1.367188c-5.855469 0-11.273438 1.695312-16 4.449219v-4.449219c0-30.878906 25.121094-56 56-56s56 25.121094 56 56zm-48-76.945312v-38.109376l38.113281 19.054688zm-368-3.054688v-32c0-4.40625 3.59375-8 8-8h40v48h-40c-4.40625 0-8-3.59375-8-8zm56 24c30.878906 0 56 25.121094 56 56v4.449219c-4.726562-2.753907-10.144531-4.449219-16-4.449219h-80c-5.855469 0-11.273438 1.695312-16 4.449219v-4.449219c0-30.878906 25.121094-56 56-56zm-56 88c0-5.894531 3.238281-11 8-13.777344v27.554688c-4.761719-2.777344-8-7.882813-8-13.777344zm56 64c5.617188 0 10.984375-1.023438 16-2.800781v.136719l-16 21.335937-16-21.335937v-.136719c5.015625 1.777343 10.382812 2.800781 16 2.800781zm32 112h-64v-48h64zm48-24h-32v-40h-96v40h-32v-41.824219c0-9.953125 6.257812-18.984375 15.574219-22.472656l37.625-14.101563 26.800781 35.734376 26.800781-35.734376 37.625 14.109376c9.316407 3.480468 15.574219 12.511718 15.574219 22.464843zm16-16c0-5.894531 3.238281-11 8-13.777344v27.554688c-4.761719-2.777344-8-7.882813-8-13.777344zm88 176h-64v-48h64zm48-65.824219v41.824219h-32v-40h-96v40h-32v-41.824219c0-9.953125 6.257812-18.984375 15.574219-22.480469l34.433593-12.910156c4.449219 12.335938 16.152344 21.214844 29.992188 21.214844s25.542969-8.878906 29.992188-21.207031l34.433593 12.910156c9.316407 3.488281 15.574219 12.519531 15.574219 22.472656zm-64-46.175781c0 8.824219-7.175781 16-16 16s-16-7.175781-16-16v-2.800781c5.015625 1.785156 10.382812 2.800781 16 2.800781s10.984375-1.023438 16-2.800781zm-16-16c-17.648438 0-32-14.351562-32-32v-32.550781c11.710938-1.234375 22.761719-5.503907 32-12.769531 9.238281 7.265624 20.289062 11.535156 32 12.769531v32.550781c0 17.648438-14.351562 32-32 32zm48-34.222656v-27.554688c4.761719 2.777344 8 7.882813 8 13.777344s-3.238281 11-8 13.777344zm136 26.222656h-64v-48h64zm48-24h-32v-40h-96v40h-32v-41.824219c0-9.953125 6.257812-18.984375 15.574219-22.472656l37.625-14.101563 26.800781 35.734376 26.800781-35.734376 37.625 14.109376c9.316407 3.480468 15.574219 12.511718 15.574219 22.464843zm0 0"/><path d="m232 448h32v16h-32zm0 0"/><path d="m80 312h32v16h-32zm0 0"/><path d="m384 312h32v16h-32zm0 0"/></svg>