<?xml version="1.0" encoding="iso-8859-1"?>
<!-- Generator: Adobe Illustrator 19.0.0, SVG Export Plug-In . SVG Version: 6.00 Build 0)  -->
<svg version="1.1" id="Capa_1" xmlns="http://www.w3.org/2000/svg" xmlns:xlink="http://www.w3.org/1999/xlink" x="0px" y="0px"
	 viewBox="0 0 512.001 512.001" style="enable-background:new 0 0 512.001 512.001;" xml:space="preserve">
<path style="fill:#FFB9B7;" d="M365.317,173.407c-8.337-2.751-16.203-7.99-22.371-15.552c-15.845-19.428-14.495-46.753,3.014-61.033
	s44.547-10.107,60.392,9.321c1.573,1.929,2.969,3.937,4.204,6.002l2.138-2.126c-2.067-1.236-4.078-2.634-6.009-4.209
	c-19.428-15.845-23.6-42.884-9.321-60.392c14.28-17.509,41.605-18.859,61.033-3.014c7.541,6.151,12.773,13.99,15.53,22.302
	L365.317,173.407z"/>
<path style="fill:#FFFFFF;" d="M435.683,189.57c8.681-8.681,12.063-20.853,10.376-33.049c-0.892-6.45,4.592-11.933,11.041-11.041
	c12.196,1.687,24.368-1.695,33.049-10.376c15.832-15.832,14.054-43.276-3.969-61.3s-45.469-19.801-61.3-3.969
	c-8.681,8.681-12.063,20.853-10.376,33.049c0.892,6.45-4.592,11.933-11.041,11.041c-12.196-1.687-24.368,1.695-33.049,10.376
	c-15.832,15.832-14.054,43.276,3.969,61.3C392.407,203.623,419.852,205.401,435.683,189.57z"/>
<path style="fill:#FFB9B7;" d="M411.365,132.791l-2.713-10.124c-2.374-8.861,5.734-16.97,14.595-14.595l10.124,2.713
	c8.861,2.374,11.829,13.45,5.342,19.937l-7.411,7.411C424.816,144.62,413.739,141.652,411.365,132.791z"/>
<path style="fill:#FCB8E7;" d="M444.874,180.379c12.147,12.147,25.617,9.494,35.56-0.45c9.944-9.944,12.598-23.413,0.45-35.56
	c-12.147-12.147-34.495-18.373-44.44-8.428C426.501,145.882,432.726,168.231,444.874,180.379z"/>
<g>
	
		<ellipse transform="matrix(0.7071 -0.7071 0.7071 0.7071 79.2701 256.3483)" style="fill:#D8FB93;" cx="349.075" cy="32.487" rx="24.306" ry="20.62"/>
	
		<ellipse transform="matrix(0.7071 0.7071 -0.7071 0.7071 162.6522 -172.0754)" style="fill:#D8FB93;" cx="289.039" cy="110.301" rx="24.306" ry="20.62"/>
</g>
<path style="fill:#FFC66C;" d="M180.07,502.006H86.132c-12.142,0-21.985-9.843-21.985-21.985v-57.962h137.909v57.962
	C202.055,492.162,192.213,502.006,180.07,502.006z"/>
<g>
	<path style="fill:#A0E557;" d="M146.464,422.059h60.311c4.052-4.863,7.986-10.032,11.708-15.513
		c33.94-49.961,37.511-106.716,37.511-106.716s-54.179,28.764-88.12,78.726L146.464,422.059z"/>
	<path style="fill:#A0E557;" d="M98.606,377.609c-33.941-49.962-88.397-77.78-88.397-77.78s3.572,56.755,37.511,106.716
		c3.723,5.479,7.656,10.649,11.708,15.513h60.311L98.606,377.609z"/>
</g>
<path style="fill:#D8FB93;" d="M156.486,422.059c4.842-18.073,8.504-39.212,8.489-61.804
	c-0.043-66.539-31.958-120.448-31.958-120.448s-31.835,53.958-31.792,120.499c0.015,22.577,3.701,43.697,8.563,61.754
	L156.486,422.059L156.486,422.059z"/>
<path style="fill:#FFB9B7;" d="M221.736,191.603c-2.648,8.026-7.691,15.598-14.97,21.534c-18.702,15.252-45.004,13.953-58.75-2.901
	c-13.746-16.855-9.729-42.882,8.972-58.134c1.857-1.514,3.79-2.858,5.777-4.047l-2.047-2.058c-1.19,1.99-2.535,3.925-4.051,5.784
	c-15.252,18.701-41.28,22.718-58.134,8.972c-16.855-13.746-18.153-40.049-2.901-58.75c5.92-7.259,13.467-12.295,21.468-14.949
	L221.736,191.603z"/>
<path style="fill:#FFFFFF;" d="M237.294,123.869c-8.356-8.356-20.074-11.611-31.813-9.987c-6.208,0.858-11.486-4.42-10.628-10.628
	c1.624-11.74-1.631-23.456-9.987-31.813c-15.239-15.239-41.657-13.528-59.007,3.821s-19.06,43.768-3.821,59.007
	c8.356,8.356,20.074,11.611,31.813,9.987c6.208-0.858,11.486,4.42,10.628,10.628c-1.624,11.74,1.631,23.456,9.987,31.813
	c15.239,15.239,41.657,13.528,59.007-3.821S252.533,139.108,237.294,123.869z"/>
<path style="fill:#FFB9B7;" d="M182.639,147.278l-9.746,2.611c-8.529,2.285-16.335-5.519-14.05-14.05l2.611-9.746
	c2.285-8.529,12.947-11.386,19.191-5.143l7.134,7.134C194.025,134.33,191.168,144.992,182.639,147.278z"/>
<path style="fill:#FCB8E7;" d="M228.447,115.022c11.693-11.693,9.139-24.659-0.434-34.23c-9.573-9.573-22.538-12.126-34.23-0.434
	c-11.693,11.693-17.686,33.205-8.114,42.778C195.241,132.707,216.753,126.715,228.447,115.022z"/>
<path style="fill:#FFFFFF;" d="M436.333,190.167c8.716-8.716,12.111-20.936,10.417-33.181c-0.895-6.475,4.61-11.981,11.085-11.085
	c12.245,1.694,24.465-1.701,33.181-10.417c15.894-15.894,14.11-43.449-3.985-61.544c-18.095-18.095-45.65-19.88-61.544-3.985
	c-8.716,8.716-12.111,20.936-10.417,33.181c0.895,6.475-4.61,11.981-11.085,11.085c-12.245-1.694-24.465,1.701-33.181,10.417
	c-15.894,15.894-14.11,43.449,3.985,61.544C392.884,204.277,420.439,206.062,436.333,190.167z"/>
<path d="M243.53,356.629c-5.128-2.042-10.94,0.459-12.981,5.586l-0.149,0.374c-2.028,5.134,0.49,10.939,5.623,12.966
	c1.205,0.477,2.447,0.702,3.669,0.702c3.981,0,7.746-2.396,9.298-6.325l0.128-0.321C251.159,364.483,248.657,358.672,243.53,356.629
	z"/>
<path d="M498.083,142.551c19.764-19.766,17.976-53.714-3.985-75.677c-3.486-3.486-7.275-6.459-11.261-8.923
	c-3.687-8.974-9.639-16.965-17.383-23.28c-11.35-9.258-25.332-13.986-39.385-13.281c-14.436,0.713-27.205,7.011-35.951,17.736
	c-8.485,10.403-12.113,23.679-10.309,37.506c-8.737-4.945-17.857-9.105-27.26-12.437c6.532-1.427,12.913-4.792,18.177-10.054h0.001
	c13.373-13.373,14.541-33.964,2.605-45.901c-11.938-11.936-32.527-10.767-45.902,2.606c-9.343,9.344-12.721,22.207-9.841,33.184
	l-30.42,10.462c-20.434,0.916-40.212,5.38-58.964,13.316c-0.087,0.035-0.173,0.07-0.259,0.107c-0.009,0.004-0.019,0.008-0.028,0.012
	c-4.913-3.146-10.192-4.959-15.595-5.3c-4.655-0.292-11.031,0.448-17.834,4.533c-0.811-0.962-1.665-1.892-2.558-2.786
	c-19.111-19.11-51.922-17.396-73.141,3.821c-3.301,3.301-6.16,6.917-8.556,10.76c-8.612,3.565-16.279,9.294-22.346,16.733
	c-8.941,10.963-13.497,24.474-12.827,38.043c0.689,13.96,6.783,26.308,17.156,34.768c8.383,6.837,18.69,10.425,29.627,10.425
	c2.597,0,5.23-0.202,7.881-0.612c0.063-0.01,0.125-0.024,0.187-0.033c-4.513,15.535-6.804,31.63-6.804,48.019v10.737
	c-5.936,10.796-29.598,57.239-31.718,114.91c-33.674-38.779-74.64-59.995-76.636-61.014c-3.198-1.635-7.024-1.427-10.028,0.545
	c-3.002,1.97-4.717,5.398-4.491,8.982c0.153,2.429,4.146,60.076,39.218,111.704c3.746,5.514,7.884,10.997,12.298,16.294
	c0.704,0.843,1.52,1.535,2.403,2.086v49.479c0,4.24,0.836,8.286,2.341,11.992H10.182c-5.518,0-9.993,4.475-9.993,9.993
	s4.475,9.993,9.993,9.993h324.785c5.518,0,9.993-4.475,9.993-9.993s-4.475-9.993-9.993-9.993h-125.26
	c1.505-3.706,2.341-7.752,2.341-11.992v-49.479c0.884-0.55,1.701-1.241,2.403-2.085c4.414-5.297,8.552-10.78,12.298-16.295
	c2.003-2.949,3.963-6.009,5.827-9.093c2.855-4.724,1.341-10.867-3.383-13.721c-4.726-2.857-10.867-1.34-13.721,3.383
	c-1.684,2.784-3.452,5.544-5.258,8.202c-2.541,3.743-5.288,7.473-8.194,11.135h-32.827c1.847-8.465,3.249-16.874,4.211-25.193
	c1.047-0.697,1.984-1.597,2.733-2.701c20.378-29.996,48.777-52.245,66.912-64.556c-0.787,4.006-1.774,8.48-3.009,13.314
	c-1.365,5.347,1.863,10.79,7.211,12.155c5.348,1.366,10.791-1.863,12.155-7.211c5.515-21.602,6.519-36.78,6.559-37.414
	c0.228-3.613-1.516-7.064-4.558-9.026c-3.04-1.963-6.902-2.128-10.102-0.429c-1.987,1.055-42.851,23.035-76.462,62.109
	c-1.881-57.691-25.482-104.354-31.751-115.785V226.3c0-2.161,0.049-4.314,0.139-6.463c8.265,8.366,19.394,13.259,31.806,13.873
	c0.875,0.043,1.749,0.065,2.622,0.065c12.678,0,25.164-4.526,35.42-12.89c7.463-6.087,13.203-13.781,16.765-22.423
	c3.816-2.388,7.411-5.234,10.693-8.515c21.218-21.218,22.933-54.028,3.821-73.141c-0.87-0.87-1.776-1.7-2.711-2.492
	c4.083-6.799,4.824-13.17,4.528-17.83c-0.065-1.027-0.184-2.051-0.354-3.067l11.864,4.775c-1.01,3.508-1.392,7.262-1.078,11.087
	c0.686,8.357,4.512,16.409,10.775,22.672c7.184,7.185,16.451,10.847,25.341,10.847c7.656,0,15.035-2.718,20.558-8.242
	c11.935-11.936,10.766-32.526-2.605-45.9c-6.264-6.263-14.316-10.09-22.673-10.776c-6.348-0.523-12.482,0.87-17.629,3.873
	l-9.147-3.682c11.018-2.506,22.334-3.78,33.872-3.78c18.196,0,36.177,3.291,53.102,9.6c-2.909,1.503-5.679,3.307-8.268,5.418
	c-10.724,8.746-17.023,21.514-17.735,35.951c-0.694,14.046,4.022,28.032,13.28,39.385c6.333,7.765,14.346,13.726,23.347,17.409
	c2.488,3.998,5.46,7.763,8.893,11.197c11.74,11.74,26.905,17.715,41.498,17.715c12.707,0,24.979-4.531,34.179-13.731
	c0.984-0.984,1.917-2.016,2.805-3.08c5.378,3.316,11.095,4.982,16.834,4.982c8.764,0,17.575-3.863,25.292-11.579
	c12.771-12.772,14.979-28.539,6.594-42.133C496.016,144.514,497.074,143.56,498.083,142.551z M483.95,128.417
	c-0.995,0.995-2.069,1.901-3.205,2.719c-8.401-5.663-18.457-9.242-27.895-9.666c-0.086-1.507-0.323-3.022-0.727-4.528
	c-2.055-7.668-7.859-13.472-15.527-15.527l-10.165-2.724c-0.588-0.158-1.176-0.282-1.766-0.391
	c-0.3-8.267,2.487-15.882,7.886-21.281c11.972-11.973,33.242-10.184,47.411,3.985C494.135,95.176,495.923,116.445,483.95,128.417z
	 M419.355,118.511C419.355,118.511,419.356,118.51,419.355,118.511c0.002-0.002,0.002-0.003,0.003-0.003
	c0.534-0.532,1.172-0.705,1.903-0.509l10.165,2.724c0.729,0.196,1.197,0.665,1.393,1.394c0.196,0.729,0.024,1.37-0.511,1.904
	l-7.44,7.441c-0.534,0.535-1.174,0.706-1.903,0.51c-0.73-0.196-1.199-0.665-1.395-1.394l-2.724-10.163
	C418.652,119.684,418.823,119.044,419.355,118.511z M405.606,51.758c5.123-6.28,12.74-9.975,21.45-10.406
	c8.601-0.427,17.247,2.35,24.515,7.832c-12.338,0.239-24.2,4.754-33.151,13.704c-7.105,7.105-11.604,16.259-13.153,26.289
	c-2.855-4.376-4.757-9.239-5.54-14.316C398.397,66.242,400.485,58.038,405.606,51.758z M341.565,24.979
	c3.282-3.283,7.492-5.029,11.218-5.029c2.5,0,4.782,0.786,6.418,2.422c4.073,4.073,2.88,12.149-2.604,17.634
	c-5.488,5.486-13.563,6.677-17.635,2.606C334.885,38.541,336.079,30.465,341.565,24.979z M211.062,82.573
	c4.059,0.257,7.616,3.015,9.884,5.285c2.27,2.268,5.028,5.825,5.285,9.884c0.212,3.347-1.42,6.783-4.851,10.213l0,0
	c-4.385,4.385-10.999,7.963-17.26,9.336c-5.141,1.127-9.503,0.659-11.385-1.222c-4.293-4.293-1.004-19.528,8.114-28.646
	c3.233-3.233,6.472-4.869,9.635-4.869C210.676,82.555,210.87,82.561,211.062,82.573z M170.308,140.236
	c-0.203,0.056-0.822,0.22-1.425-0.38c0,0-0.001-0.001-0.001-0.002c-0.001-0.001-0.002-0.002-0.003-0.003
	c-0.601-0.603-0.436-1.221-0.381-1.426l2.61-9.745c0.055-0.204,0.221-0.824,1.045-1.045c0.156-0.042,0.3-0.06,0.43-0.06
	c0.557,0,0.878,0.321,0.998,0.442l7.134,7.135c0.149,0.149,0.604,0.604,0.383,1.427c-0.221,0.823-0.841,0.99-1.044,1.044h-0.001
	L170.308,140.236z M177.798,78.506c0.87,0.87,1.661,1.811,2.389,2.796c-5.296,7.954-8.652,17.412-9.134,26.34
	c-1.356,0.1-2.72,0.326-4.074,0.689c-7.495,2.009-13.168,7.683-15.177,15.178l-2.61,9.745c-0.125,0.465-0.233,0.929-0.326,1.395
	c-7.683,0.198-14.743-2.425-19.763-7.447c-5.308-5.308-7.938-12.766-7.405-21c0.315-4.867,1.698-9.657,4.017-14.1
	c0.127-0.218,0.251-0.438,0.362-0.665c1.79-3.271,4.083-6.347,6.847-9.109C146.35,68.901,166.481,67.189,177.798,78.506z
	 M126.677,158.559c-8.148,1.259-15.897-0.715-21.828-5.549c-5.93-4.836-9.419-12.033-9.825-20.266
	c-0.383-7.746,1.979-15.529,6.675-22.197c0.511,11.854,5.115,22.632,13.271,30.789c6.621,6.62,15.08,10.896,24.356,12.543
	C135.419,156.265,131.136,157.871,126.677,158.559z M23.109,319.215c18.155,11.964,46.74,33.846,67.23,64.01
	c0.656,0.965,1.457,1.77,2.345,2.424c0.973,8.717,2.431,17.535,4.38,26.416H64.179c-2.906-3.661-5.652-7.392-8.195-11.135
	C36.037,371.566,27.051,339.36,23.109,319.215z M192.062,480.02c0,6.613-5.379,11.992-11.992,11.992H86.132
	c-6.613,0-11.992-5.379-11.992-11.992v-47.968h35.649h46.698h35.575v47.968H192.062z M148.702,412.065h-31.139
	c-4.201-17.669-6.334-35.049-6.345-51.767c-0.026-41.049,12.827-77.497,21.829-97.983c9.029,20.431,21.908,56.781,21.934,97.945
	C154.993,376.99,152.882,394.383,148.702,412.065z M176.024,213.745c-8.233-0.407-15.429-3.895-20.266-9.825
	c-4.836-5.929-6.807-13.681-5.549-21.827c0.687-4.445,2.284-8.714,4.658-12.61c1.656,9.247,5.928,17.678,12.531,24.281
	c8.175,8.175,18.979,12.785,30.864,13.279C191.586,211.755,183.788,214.126,176.024,213.745z M226.405,175.81
	c-2.755,2.755-5.821,5.045-9.082,6.831c-0.218,0.107-0.429,0.228-0.638,0.35c-4.458,2.335-9.268,3.727-14.155,4.043
	c-8.233,0.536-15.692-2.096-21-7.404c-5.021-5.021-7.644-12.081-7.447-19.763c0.466-0.093,0.932-0.202,1.396-0.326l9.746-2.611
	h-0.001c7.496-2.009,13.169-7.683,15.178-15.178c0.349-1.302,0.567-2.612,0.673-3.917c2.361-0.131,4.809-0.469,7.328-1.021
	c6.711-1.473,13.326-4.349,19.111-8.211c0.956,0.713,1.866,1.486,2.712,2.331C241.546,142.254,239.831,162.385,226.405,175.81z
	 M285.378,97.756c0.367,0,0.703,0.017,0.994,0.041c3.591,0.295,7.298,2.113,10.174,4.989c5.485,5.485,6.68,13.561,2.605,17.634
	c-4.073,4.072-12.149,2.88-17.634-2.605l0,0c-2.876-2.875-4.694-6.584-4.989-10.173c-0.144-1.753-0.025-5.053,2.383-7.461
	C280.919,98.173,283.544,97.756,285.378,97.756z M342.163,126.243c0.43-8.709,4.125-16.326,10.405-21.448
	c6.279-5.122,14.481-7.208,23.103-5.88c5.062,0.78,9.91,2.672,14.276,5.513c-9.996,1.559-19.123,6.054-26.212,13.142
	c-8.737,8.737-13.526,20.39-13.751,33.175C344.511,143.481,341.739,134.841,342.163,126.243z M381.855,179.115
	c-2.904-2.904-5.316-6.136-7.201-9.574c-0.115-0.235-0.244-0.463-0.377-0.688c-2.457-4.698-3.921-9.766-4.255-14.915
	c-0.565-8.713,2.223-16.61,7.848-22.234c5.397-5.398,13.017-8.184,21.281-7.885c0.108,0.59,0.233,1.178,0.391,1.766l2.724,10.164
	c2.056,7.668,7.86,13.472,15.528,15.527c1.479,0.397,2.968,0.634,4.448,0.724c0.408,9.468,3.997,19.563,9.684,27.99
	c-0.801,1.102-1.689,2.142-2.658,3.11C417.294,195.072,396.025,193.286,381.855,179.115z M474.197,173.421
	c-11.008,11.011-18.958,3.064-21.57,0.453c-9.661-9.661-13.067-25.879-8.462-30.484c4.603-4.606,20.822-1.199,30.484,8.462
	C477.26,154.464,485.207,162.411,474.197,173.421z"/>
<path d="M375.61,492.012c-2.628,0-5.207,1.068-7.065,2.928c-1.858,1.859-2.928,4.437-2.928,7.065s1.069,5.207,2.928,7.064
	c1.859,1.859,4.437,2.929,7.065,2.929s5.197-1.069,7.065-2.929c1.858-1.858,2.928-4.436,2.928-7.064s-1.069-5.207-2.928-7.065
	C380.807,493.081,378.238,492.012,375.61,492.012z"/>
<g>
</g>
<g>
</g>
<g>
</g>
<g>
</g>
<g>
</g>
<g>
</g>
<g>
</g>
<g>
</g>
<g>
</g>
<g>
</g>
<g>
</g>
<g>
</g>
<g>
</g>
<g>
</g>
<g>
</g>
</svg>
