<?xml version="1.0" encoding="iso-8859-1"?>
<!-- Generator: Adobe Illustrator 22.1.0, SVG Export Plug-In . SVG Version: 6.00 Build 0)  -->
<svg xmlns="http://www.w3.org/2000/svg" xmlns:xlink="http://www.w3.org/1999/xlink" version="1.1" id="Layer_3" x="0px" y="0px" viewBox="0 0 64 64" style="enable-background:new 0 0 64 64;" xml:space="preserve" width="512" height="512">
<g>
	<g>
		<rect x="4" y="2" style="fill:#979891;" width="40" height="56"/>
	</g>
	<g>
		<rect x="4" y="2" style="fill:#B9BAB6;" width="37" height="56"/>
	</g>
	<g>
		<rect x="10" y="48" style="fill:#94FF9C;" width="30" height="4"/>
	</g>
	<g>
		<rect x="2" y="8" style="fill:#515348;" width="4" height="4"/>
	</g>
	<g>
		<rect x="2" y="8" style="fill:#74756D;" width="2" height="4"/>
	</g>
	<g>
		<rect x="2" y="16" style="fill:#515348;" width="4" height="4"/>
	</g>
	<g>
		<rect x="2" y="16" style="fill:#74756D;" width="2" height="4"/>
	</g>
	<g>
		<rect x="2" y="24" style="fill:#515348;" width="4" height="4"/>
	</g>
	<g>
		<rect x="2" y="24" style="fill:#74756D;" width="2" height="4"/>
	</g>
	<g>
		<rect x="2" y="32" style="fill:#515348;" width="4" height="4"/>
	</g>
	<g>
		<rect x="2" y="32" style="fill:#74756D;" width="2" height="4"/>
	</g>
	<g>
		<rect x="2" y="40" style="fill:#515348;" width="4" height="4"/>
	</g>
	<g>
		<rect x="2" y="40" style="fill:#74756D;" width="2" height="4"/>
	</g>
	<g>
		<rect x="2" y="48" style="fill:#515348;" width="4" height="4"/>
	</g>
	<g>
		<rect x="2" y="48" style="fill:#74756D;" width="2" height="4"/>
	</g>
	<g>
		<polygon style="fill:#FCC062;" points="36,58 28,62 32,54   "/>
	</g>
	<g>
		<path style="fill:#A67C52;" d="M36,58l25.293-25.293C61.746,32.254,62,31.64,62,31v0c0-0.64-0.254-1.254-0.707-1.707l-0.586-0.586    C60.254,28.254,59.64,28,59,28l0,0c-0.64,0-1.254,0.254-1.707,0.707L32,54L36,58z"/>
	</g>
	<g>
		
			<rect x="52.379" y="32.672" transform="matrix(0.7071 -0.7071 0.7071 0.7071 -9.1396 48.935)" style="fill:#E4DC52;" width="4.243" height="5.657"/>
	</g>
	<g>
		<polyline style="fill:#BF6F8C;" points="44,12 48,12 48,18 44,18   "/>
	</g>
	<g>
		<rect x="44" y="12" style="fill:#FF94BB;" width="2" height="6"/>
	</g>
	<g>
		<polyline style="fill:#657D19;" points="44,22 48,22 48,28 44,28   "/>
	</g>
	<g>
		<rect x="44" y="22" style="fill:#86A621;" width="2" height="6"/>
	</g>
	<g>
		<polyline style="fill:#ABA53E;" points="44,2 48,2 48,8 44,8   "/>
	</g>
	<g>
		<rect x="44" y="2" style="fill:#E4DC52;" width="2" height="6"/>
	</g>
	<g>
		<rect x="10" y="8" style="fill:#6FBF75;" width="10" height="24"/>
	</g>
	<g>
		<rect x="10" y="8" style="fill:#94FF9C;" width="7" height="24"/>
	</g>
	<g>
		<rect x="20" y="2" style="fill:#ABA53E;" width="24" height="30"/>
	</g>
	<g>
		<rect x="20" y="2" style="fill:#E4DC52;" width="21" height="30"/>
	</g>
	<g>
		<rect x="3" y="12" width="2" height="4"/>
	</g>
	<g>
		<rect x="3" y="20" width="2" height="4"/>
	</g>
	<g>
		<rect x="3" y="28" width="2" height="4"/>
	</g>
	<g>
		<rect x="3" y="36" width="2" height="4"/>
	</g>
	<g>
		<rect x="3" y="44" width="2" height="4"/>
	</g>
	<g>
		<path d="M26,59H4c-0.552,0-1-0.448-1-1v-6h2v5h21V59z"/>
	</g>
	<g>
		<path d="M44,59h-3v-2h2v-7h2v8C45,58.552,44.552,59,44,59z"/>
	</g>
	<g>
		<rect x="43" y="32" width="2" height="10"/>
	</g>
	<g>
		<path d="M6,13H2c-0.552,0-1-0.448-1-1V8c0-0.552,0.448-1,1-1h4c0.552,0,1,0.448,1,1v4C7,12.552,6.552,13,6,13z M3,11h2V9H3V11z"/>
	</g>
	<g>
		<path d="M6,21H2c-0.552,0-1-0.448-1-1v-4c0-0.552,0.448-1,1-1h4c0.552,0,1,0.448,1,1v4C7,20.552,6.552,21,6,21z M3,19h2v-2H3V19z"/>
	</g>
	<g>
		<path d="M6,29H2c-0.552,0-1-0.448-1-1v-4c0-0.552,0.448-1,1-1h4c0.552,0,1,0.448,1,1v4C7,28.552,6.552,29,6,29z M3,27h2v-2H3V27z"/>
	</g>
	<g>
		<path d="M6,37H2c-0.552,0-1-0.448-1-1v-4c0-0.552,0.448-1,1-1h4c0.552,0,1,0.448,1,1v4C7,36.552,6.552,37,6,37z M3,35h2v-2H3V35z"/>
	</g>
	<g>
		<path d="M6,45H2c-0.552,0-1-0.448-1-1v-4c0-0.552,0.448-1,1-1h4c0.552,0,1,0.448,1,1v4C7,44.552,6.552,45,6,45z M3,43h2v-2H3V43z"/>
	</g>
	<g>
		<path d="M6,53H2c-0.552,0-1-0.448-1-1v-4c0-0.552,0.448-1,1-1h4c0.552,0,1,0.448,1,1v4C7,52.552,6.552,53,6,53z M3,51h2v-2H3V51z"/>
	</g>
	<g>
		<path d="M44,33H20c-0.552,0-1-0.448-1-1V3H5v5H3V2c0-0.552,0.448-1,1-1h40c0.552,0,1,0.448,1,1v30C45,32.552,44.552,33,44,33z     M21,31h22V3H21V31z"/>
	</g>
	<g>
		<path d="M48,19h-4v-2h3v-4h-3v-2h4c0.552,0,1,0.448,1,1v6C49,18.552,48.552,19,48,19z"/>
	</g>
	<g>
		<path d="M48,9h-4V7h3V3h-3V1h4c0.552,0,1,0.448,1,1v6C49,8.552,48.552,9,48,9z"/>
	</g>
	<g>
		<path d="M48,29h-4v-2h3v-4h-3v-2h4c0.552,0,1,0.448,1,1v6C49,28.552,48.552,29,48,29z"/>
	</g>
	<g>
		<rect x="27" y="5" width="10" height="2"/>
	</g>
	<g>
		<rect x="25" y="9" width="14" height="2"/>
	</g>
	<g>
		<rect x="25" y="13" width="14" height="2"/>
	</g>
	<g>
		<rect x="25" y="17" width="14" height="2"/>
	</g>
	<g>
		<rect x="25" y="21" width="14" height="2"/>
	</g>
	<g>
		<rect x="25" y="25" width="14" height="2"/>
	</g>
	<g>
		<path d="M29,53H10c-0.552,0-1-0.448-1-1v-4c0-0.552,0.448-1,1-1h23v2H11v2h18V53z"/>
	</g>
	<g>
		<rect x="11" y="43" width="26" height="2"/>
	</g>
	<g>
		<rect x="11" y="39" width="28" height="2"/>
	</g>
	<g>
		<rect x="11" y="35" width="28" height="2"/>
	</g>
	<g>
		<path d="M20,33H10c-0.552,0-1-0.448-1-1V8c0-0.552,0.448-1,1-1h10v2h-9v22h9V33z"/>
	</g>
	<g>
		<path d="M36,59c-0.256,0-0.512-0.098-0.707-0.293l-4-4c-0.391-0.391-0.391-1.023,0-1.414L56.586,28c1.289-1.29,3.539-1.29,4.828,0    L62,28.586c0.645,0.645,1,1.502,1,2.414s-0.355,1.77-1,2.414L36.707,58.707C36.512,58.902,36.256,59,36,59z M33.414,54L36,56.586    L60.586,32C60.849,31.737,61,31.372,61,31s-0.151-0.737-0.414-1L60,29.414c-0.526-0.526-1.474-0.526-2,0L33.414,54z"/>
	</g>
	<g>
		<path d="M28,63c-0.26,0-0.516-0.101-0.708-0.293c-0.304-0.304-0.38-0.769-0.188-1.154l4-8l1.789,0.895l-2.659,5.317l5.317-2.659    l0.895,1.789l-8,4C28.305,62.965,28.152,63,28,63z"/>
	</g>
	<g>
		<rect x="55" y="31.172" transform="matrix(0.7071 -0.7071 0.7071 0.7071 -7.6396 49.5564)" width="2" height="5.657"/>
	</g>
	<g>
		<rect x="52" y="34.172" transform="matrix(0.7071 -0.7071 0.7071 0.7071 -10.6396 48.3137)" width="2" height="5.657"/>
	</g>
</g>
</svg>
