<svg height="512pt" viewBox="-84 0 512 512" width="512pt" xmlns="http://www.w3.org/2000/svg"><path d="m171.542969 7.332031c-47.9375 0-86.789063 38.859375-86.789063 86.792969v122.417969c0 6.355469 5.152344 11.507812 11.507813 11.507812h150.570312c6.355469 0 11.507813-5.152343 11.507813-11.507812 0-25.582031 0-98.15625 0-122.417969 0-47.933594-38.859375-86.792969-86.796875-86.792969zm0 0" fill="#495766"/><path d="m114.578125 216.542969c0-1.277344 0-121.144531 0-122.417969 0-42.847656 31.050781-78.441406 71.878906-85.511719-4.847656-.839843-9.828125-1.28125-14.914062-1.28125-47.9375 0-86.789063 38.859375-86.789063 86.792969v122.417969c0 6.355469 5.152344 11.507812 11.507813 11.507812h29.824219c-6.355469 0-11.507813-5.152343-11.507813-11.507812zm0 0" fill="#3c4957"/><path d="m300.902344 280.652344-46.15625-17.875c-9.761719 10.753906-20.023438 21.96875-29.910156 32.71875-29.171876 31.722656-79.234376 31.726562-108.40625.003906-9.734376-10.582031-19.828126-21.613281-29.449219-32.214844l-44.792969 17.367188s-34.734375 14.28125-34.734375 53.875v148.90625c0 11.542968 9.355469 20.898437 20.898437 20.898437h286.390626c11.539062 0 20.894531-9.355469 20.894531-20.898437v-148.90625c0-39.597656-34.734375-53.875-34.734375-53.875zm0 0" fill="#63a1fc"/><path d="m228.417969 252.578125c-7.4375 8.234375-15.585938 17.144531-23.359375 25.601563-18.464844 20.078124-50.160156 20.082031-68.625 0-7.636719-8.304688-15.632813-17.050782-22.964844-25.164063l-27.171875 10.535156c9.824219 10.828125 20.171875 22.128907 30.132813 32.960938 29.167968 31.722656 79.234374 31.722656 108.402343 0 10.117188-11.003907 20.632813-22.492188 30.59375-33.472657zm0 0" fill="#4188ff"/><path d="m206.996094 239.246094v-24.777344c-9.882813 6.652344-21.773438 10.539062-34.554688 10.539062-14.113281 0-26.457031-4.003906-36.441406-10.660156v24.898438c0 3.039062-1.867188 5.761718-4.699219 6.859375l-18.511719 7.175781c7.511719 8.320312 15.773438 17.351562 23.644532 25.914062 18.464844 20.078126 50.160156 20.078126 68.625-.003906 8.011718-8.707031 16.421875-17.910156 24.039062-26.347656l-17.402344-6.738281c-2.832031-1.101563-4.699218-3.824219-4.699218-6.859375zm0 0" fill="#f0a479"/><path d="m160.578125 259.964844c2.828125-1.097656 4.695313-3.820313 4.695313-6.859375v-28.460938c-11.148438-1.113281-21.019532-4.792969-29.277344-10.296875v24.898438c0 3.035156-1.863282 5.757812-4.695313 6.859375l-18.511719 7.175781c5.429688 6.011719 11.25 12.398438 17.03125 18.710938zm0 0" fill="#e5966e"/><path d="m233.496094 119.886719v46.113281c0 .449219-.023438.890625-.03125 1.339844 16.453125 3.152344 30.152344-8.671875 30.152344-23.726563 0-15.042969-13.683594-26.855469-30.121094-23.726562zm0 0" fill="#f0a479"/><path d="m258.371094 128.613281c-5.457032-6.820312-14.628906-10.675781-24.875-8.726562v46.113281c0 .445312-.023438.890625-.03125 1.335938 10.257812 1.964843 19.441406-1.890626 24.90625-8.71875zm0 0" fill="#e5966e"/><path d="m230.410156 108.152344c-7.726562-2.347656-22.863281-8.53125-37.445312-23.574219-2.378906-2.453125-6.277344-2.273437-8.457032.214844-10.21875 11.652343-37.703124 40.128906-72.152343 52.847656-2.257813.832031-3.761719 2.988281-3.761719 5.398437v22.960938c0 32.417969 25.398438 62.050781 63.847656 62.050781 34.214844 0 62.050782-27.835937 62.050782-62.050781v-52.34375c0-2.535156-1.65625-4.769531-4.082032-5.503906zm0 0" fill="#f7b594"/><path d="m138.421875 166v-41.40625c-8.054687 5.0625-16.804687 9.628906-26.066406 13.046875-2.257813.832031-3.761719 2.988281-3.761719 5.398437v22.960938c0 32.417969 25.398438 62.050781 63.84375 62.050781 4.960938 0 9.78125-.601562 14.410156-1.707031-29.664062-6.714844-48.425781-32.488281-48.425781-60.34375zm0 0" fill="#f0a479"/><path d="m127.675781 356.4375c9.683594 3.21875 21.699219 1.425781 28.53125-4.921875-.59375-2.410156-.917969-5.003906-.917969-7.710937 0-3.5625.5625-6.9375 1.566407-9.957032.25-.75-.460938-1.460937-1.210938-1.210937-3.019531 1.003906-6.394531 1.566406-9.957031 1.566406-19.320312 0-29.96875-15.445313-18.574219-26.027344-2.226562-9.042969-8.25-15.53125-15.335937-15.53125-11.992188 0-19.777344 17.90625-14.691406 33.199219.25.75-.460938 1.460938-1.210938 1.210938-15.09375-5.019532-33.199219 2.558593-33.199219 14.691406 0 12.003906 17.929688 19.769531 33.199219 14.691406.75-.25 1.460938.457031 1.210938 1.210938-5.035157 15.132812 2.585937 33.195312 14.691406 33.195312 8.976562 0 16.257812-10.40625 16.257812-23.238281 0-3.566407-.5625-6.941407-1.566406-9.957031-.25-.753907.457031-1.460938 1.207031-1.210938zm0 0" fill="#fc6870"/><g fill="#ff5155"><path d="m96.976562 326.664062c5.734376-1.605468 12.398438-1.660156 18.566407.390626.75.25 1.460937-.460938 1.210937-1.210938-3.476562-10.449219-.9375-22.117188 4.839844-28.460938-2.726562-2.964843-6.125-4.738281-9.816406-4.738281-11.992188 0-19.777344 17.90625-14.695313 33.195313.101563.304687.042969.59375-.105469.824218zm0 0"/><path d="m116.753906 357.648438c.25-.753907-.460937-1.460938-1.210937-1.210938-6.207031 2.0625-12.851563 2.003906-18.554688.402344.140625.226562.195313.511718.09375.808594-5.03125 15.132812 2.589844 33.195312 14.695313 33.195312 3.6875 0 7.089844-1.761719 9.820312-4.722656-5.800781-6.367188-8.292968-18.105469-4.84375-28.472656zm0 0"/><path d="m82.34375 341.746094c0-6.828125 5.734375-12.210938 13.433594-14.722656-15.070313-4.953126-33.101563 2.613281-33.101563 14.722656 0 11.976562 17.84375 19.726562 33.09375 14.722656-7.71875-2.527344-13.425781-7.949219-13.425781-14.722656zm0 0"/></g><path d="m247.214844 327.054688c-.75.25-1.457032-.460938-1.207032-1.210938 5.015626-15.09375-2.558593-33.199219-14.695312-33.199219-7.085938 0-13.109375 6.488281-15.335938 15.53125 2.929688 2.71875 4.667969 6.101563 4.667969 9.769531 0 8.980469-10.40625 16.257813-23.242187 16.257813-3.5625 0-6.9375-.5625-9.957032-1.566406-.75-.25-1.460937.460937-1.210937 1.210937 1.003906 3.019532 1.566406 6.394532 1.566406 9.957032 0 2.707031-.324219 5.296874-.917969 7.710937 6.875 6.390625 18.910157 8.121094 28.53125 4.921875.75-.25 1.460938.457031 1.210938 1.210938-5.035156 15.132812 2.585938 33.195312 14.6875 33.195312 12.023438 0 19.765625-17.941406 14.695312-33.195312-.25-.753907.457032-1.460938 1.207032-1.210938 15.09375 5.015625 33.199218-2.554688 33.199218-14.691406 0-12.019532-17.941406-19.765625-33.199218-14.691406zm0 0" fill="#ff80bd"/><path d="m247.214844 327.054688c-.75.25-1.457032-.460938-1.207032-1.210938 5.015626-15.09375-2.558593-33.199219-14.695312-33.199219-7.085938 0-13.109375 6.488281-15.335938 15.53125 2.929688 2.71875 4.667969 6.101563 4.667969 9.769531 0 8.980469-10.40625 16.257813-23.242187 16.257813-3.5625 0-6.9375-.5625-9.957032-1.566406-.75-.25-1.457031.460937-1.210937 1.210937 1.003906 3.019532 1.566406 6.394532 1.566406 9.957032 0 2.707031-.324219 5.296874-.917969 7.710937 6.875 6.386719 18.90625 8.121094 28.53125 4.921875.75-.25 1.457032.457031 1.210938 1.210938-.480469 1.433593-.84375 2.894531-1.097656 4.367187 5.703125-1.8125 11.089844-4.464844 15.886718-7.925781 9.765626-7.046875 16.195313-16.878906 18.386719-27.761719-.867187.203125-1.730469.441406-2.585937.726563zm0 0" fill="#f964b2"/><path d="m123.6875 341.746094c0 6.578125-5.332031 11.910156-11.910156 11.910156s-11.914063-5.332031-11.914063-11.910156 5.335938-11.914063 11.914063-11.914063 11.910156 5.335938 11.910156 11.914063zm0 0" fill="#b7594a"/><path d="m115.796875 341.746094c0-3.511719 1.527344-6.660156 3.945313-8.839844-2.113282-1.902344-4.898438-3.070312-7.964844-3.070312-6.578125 0-11.914063 5.332031-11.914063 11.910156s5.335938 11.910156 11.914063 11.910156c3.066406 0 5.851562-1.167969 7.964844-3.074219-2.417969-2.179687-3.945313-5.324219-3.945313-8.835937zm0 0" fill="#aa493f"/><path d="m187.230469 302.605469c-.140625.042969-.234375-.019531-.277344-.066407-.046875-.042968-.113281-.136718-.066406-.277343 5.164062-15.535157-2.738281-34.101563-15.339844-34.101563-12.421875 0-20.589844 18.3125-15.34375 34.101563.046875.140625-.019531.234375-.0625.277343-.046875.046876-.140625.109376-.28125.066407-15.683594-5.21875-34.097656 2.847656-34.097656 15.339843 0 12.410157 18.296875 20.597657 34.097656 15.34375.140625-.050781.234375.019532.28125.0625.042969.042969.109375.136719.0625.28125-5.253906 15.800782 2.9375 34.097657 15.34375 34.097657 12.421875 0 20.585937-18.316407 15.339844-34.097657-.046875-.144531.019531-.238281.066406-.28125.042969-.042968.136719-.109374.277344-.0625 15.765625 5.242188 34.097656-2.910156 34.097656-15.34375 0-12.402343-18.292969-20.597656-34.097656-15.339843zm0 0" fill="#fec13b"/><path d="m156.203125 302.3125c5.917969-1.746094 12.851563-1.859375 19.324219.292969.140625.046875.238281-.019531.28125-.0625.042968-.046875.109375-.140625.0625-.28125-3.664063-11.023438-.78125-23.269531 5.515625-29.664063-2.707031-2.757812-6.058594-4.433594-9.839844-4.433594-12.421875 0-20.589844 18.308594-15.34375 34.097657.007813.019531 0 .035156 0 .050781zm0 0" fill="#fcb237"/><path d="m175.871094 333.632812c.046875-.144531-.019532-.238281-.0625-.28125-.046875-.042968-.140625-.113281-.28125-.0625-6.5 2.160157-13.421875 2.042969-19.324219.296876 0 .015624.007813.027343 0 .046874-5.253906 15.800782 2.941406 34.097657 15.34375 34.097657 3.75 0 7.113281-1.679688 9.835937-4.449219-6.292968-6.386719-9.175781-18.621094-5.511718-29.648438zm0 0" fill="#fcb237"/><path d="m141.429688 317.945312c0-7.148437 6.035156-12.84375 14.132812-15.433593-15.621094-5.015625-33.800781 3.019531-33.800781 15.433593 0 12.332032 18.0625 20.484376 33.792969 15.4375-8.109376-2.605468-14.125-8.324218-14.125-15.4375zm0 0" fill="#fcb237"/><path d="m221.832031 504.332031 12.941407-57.691406h-124.730469l12.945312 57.691406zm0 0" fill="#dde4f7"/><path d="m110.042969 446.640625 12.945312 57.691406h30l-12.945312-57.691406zm0 0" fill="#ccd7f2"/><path d="m239.84375 418.929688h-134.871094c-4.761718 0-8.621094 3.859374-8.621094 8.621093v11.660157c0 4.761718 3.859376 8.621093 8.621094 8.621093h134.871094c4.761719 0 8.621094-3.859375 8.621094-8.621093v-11.660157c0-4.761719-3.859375-8.621093-8.621094-8.621093zm0 0" fill="#ccd7f2"/><path d="m239.84375 429.164062h-134.871094c-3.511718 0-6.53125-2.101562-7.871094-5.117187-.480468 1.070313-.75 2.253906-.75 3.503906v11.660157c0 4.761718 3.859376 8.621093 8.617188 8.621093h134.875c4.761719 0 8.621094-3.859375 8.621094-8.621093v-11.660157c0-1.246093-.273438-2.433593-.75-3.503906-1.34375 3.015625-4.355469 5.117187-7.871094 5.117187zm0 0" fill="#bccced"/><path d="m37.453125 492.757812c0-28.945312 0-144.847656 0-180.675781 0-14.464843 4.640625-25.539062 10.527344-33.785156l-5.792969 2.246094s-34.734375 14.28125-34.734375 53.875v149.898437c0 11.054688 8.960937 20.015625 20.015625 20.015625h21.558594c-6.390625 0-11.574219-5.183593-11.574219-11.574219zm0 0" fill="#4188ff"/><path d="m183.441406 317.867188c0 6.578124-5.332031 11.910156-11.910156 11.910156s-11.914062-5.332032-11.914062-11.910156c0-6.578126 5.335937-11.910157 11.914062-11.910157s11.910156 5.332031 11.910156 11.910157zm0 0" fill="#b7594a"/><path d="m175.550781 317.867188c0-3.511719 1.527344-6.65625 3.945313-8.835938-2.113282-1.902344-4.898438-3.074219-7.964844-3.074219-6.582031 0-11.914062 5.332031-11.914062 11.914063 0 6.578125 5.332031 11.910156 11.914062 11.910156 3.066406 0 5.851562-1.171875 7.964844-3.074219-2.417969-2.179687-3.945313-5.328125-3.945313-8.839843zm0 0" fill="#aa493f"/><path d="m243.226562 341.746094c0 6.578125-5.332031 11.910156-11.910156 11.910156s-11.914062-5.332031-11.914062-11.910156 5.335937-11.914063 11.914062-11.914063 11.910156 5.335938 11.910156 11.914063zm0 0" fill="#b7594a"/><path d="m235.335938 341.746094c0-3.511719 1.527343-6.660156 3.945312-8.839844-2.113281-1.902344-4.898438-3.070312-7.964844-3.070312-6.578125 0-11.914062 5.332031-11.914062 11.910156s5.335937 11.910156 11.914062 11.910156c3.066406 0 5.851563-1.167969 7.964844-3.074219-2.417969-2.179687-3.945312-5.324219-3.945312-8.835937zm0 0" fill="#aa493f"/><path d="m122.472656 241.667969c-9.539062 3.699219-74.035156 28.703125-82.949218 32.160156-.046876.015625-.09375.035156-.140626.054687-1.609374.660157-39.382812 16.699219-39.382812 60.8125v150.398438c0 14.835938 12.070312 26.90625 26.902344 26.90625h128.050781c4.144531 0 7.5-3.359375 7.5-7.5 0-4.144531-3.355469-7.5-7.5-7.5h-25.941406l-9.507813-41.496094h105.90625l-9.507812 41.496094h-25.945313c-4.144531 0-7.5 3.355469-7.5 7.5 0 4.140625 3.355469 7.5 7.5 7.5h126.324219c14.835938 0 26.902344-12.070312 26.902344-26.90625v-65.992188c0-4.144531-3.355469-7.5-7.5-7.5-4.140625 0-7.5 3.355469-7.5 7.5v65.992188c0 6.566406-5.339844 11.90625-11.902344 11.90625h-38.679688v-119.203125c0-4.140625-3.359374-7.5-7.5-7.5-4.144531 0-7.5 3.359375-7.5 7.5v119.203125h-31.3125l9.519532-41.542969c8.460937-.480469 15.203125-7.496093 15.203125-16.074219v-11.664062c0-8.886719-7.230469-16.117188-16.121094-16.117188h-36.160156c1.003906-11.988281 4.304687-20.84375 7.660156-26.96875 12.707031 25.472657 45.382813 13.863282 43.671875-19.019531 18.035156.9375 32.898438-9.695312 32.898438-23.699219 0-14.027343-14.890626-24.636718-32.898438-23.703124.585938-11.285157-3.519531-23.425782-12.6875-29.503907 5.359375-5.855469 10.441406-11.425781 15.191406-16.648437l40.570313 15.710937c1.9375.832031 30.046875 13.496094 30.046875 46.921875v49.40625c0 4.140625 3.359375 7.5 7.5 7.5 4.144531 0 7.5-3.359375 7.5-7.5v-49.40625c0-44.113281-37.773438-60.148437-39.382813-60.8125-.046875-.019531-.09375-.039062-.140625-.054687-53.464844-20.703125-42.132812-16.316407-89.117187-34.515625v-3.59375h32.335937c10.480469 0 19.007813-8.523438 19.007813-19.003906v-54.921876c4.070312-5.28125 6.269531-11.503906 6.269531-18.007812 0-6.5-2.199219-12.726562-6.269531-18.003906v-31.484375c0-51.992188-42.300781-94.292969-94.292969-94.292969s-94.292969 42.300781-94.292969 94.292969v122.417969c0 10.480468 8.527344 19.007812 19.007813 19.007812h32.234375v3.597656zm126.796875 92.765625c.121094-.035156.242188-.054688.363281-.09375 11.285157-3.753906 23.328126 1.921875 23.328126 7.574218 0 5.640626-12.03125 11.332032-23.332032 7.574219-.117187-.039062-.238281-.058593-.359375-.09375 2.003907-4.777343 2.007813-10.175781 0-14.960937zm-138.53125-72.125c22.027344 24.292968 24.425781 27.296875 32.617188 32.121094-4.703125.269531-8.945313 1.296874-12.648438 2.867187-3.125-5.296875-7.945312-9.667969-13.855469-11.296875-6.335937-6.902344-12.160156-13.265625-17.597656-19.238281zm53.375 37.898437c-4.019531-14.027343 2.796875-23.691406 7.480469-23.691406 4.722656 0 11.632812 9.152344 7.480469 23.691406-4.777344-2.003906-10.175781-2.007812-14.960938 0zm11.890625 17.90625c0 2.433594-1.980468 4.410157-4.410156 4.410157s-4.410156-1.976563-4.410156-4.410157c0-2.429687 1.980468-4.410156 4.410156-4.410156s4.410156 1.980469 4.410156 4.410156zm-11.894531 17.910157c4.652344 1.949218 10.054687 2.058593 14.964844 0 4.007812 14.066406-2.824219 23.691406-7.480469 23.691406-4.699219 0-11.492188-9.605469-7.484375-23.691406zm-.015625 37.175781v38.398437h-9.589844c-1.78125-24.863281-12.125-39.574218-17.902344-45.957031 5.972657.15625 11.378907-.941406 16.042969-2.917969 2.855469 4.863282 6.820313 8.546875 11.449219 10.476563zm-33.09375-34.140625c5.335938 2.207031 11.226562 3.054687 16.890625 2.757812-.113281 2.238282-.03125 4.515625.175781 6.507813-4.851562 2.527343-11.9375 3.171875-17.972656 1.164062h-.003906c-.117188-.039062-.238282-.058593-.359375-.09375 1.328125-3.164062 1.824219-6.613281 1.269531-10.335937zm22.6875-13.460938c-13.816406 3.945313-23.691406-2.648437-23.691406-7.484375 0-4.730469 9.53125-11.523437 23.691406-7.480469-2.003906 4.777344-2.007812 10.175782 0 14.964844zm-38.097656-2.722656c-3.894532-.769531-7.78125-.324219-11.246094 1.128906-3.949219-13.78125 2.636719-23.691406 7.480469-23.691406.125 0 .25.011719.371093.023438.011719.003906.023438.003906.035157.007812 2.359375.238281 4.84375 2.714844 6.453125 6.316406-3.457032 4.953125-4.46875 10.796875-3.09375 16.214844zm.644531 19.039062c0 2.433594-1.980469 4.410157-4.410156 4.410157-2.429688 0-4.410157-1.976563-4.410157-4.410157 0-2.433593 1.980469-4.410156 4.410157-4.410156 2.429687 0 4.410156 1.976563 4.410156 4.410156zm-11.890625 17.90625c4.777344 2.003907 10.175781 2.007813 14.960938 0 4.027343 14.054688-2.785157 23.691407-7.480469 23.691407-4.132813 0-8.757813-6.730469-8.757813-15.738281 0-3.988282.839844-6.421876 1.277344-7.953126zm-23.757812 137.179688v-119.203125c0-4.140625-3.355469-7.5-7.5-7.5-4.144532 0-7.5 3.359375-7.5 7.5v119.203125h-38.679688c-6.566406 0-11.90625-5.339844-11.90625-11.90625v-150.398438c0-33.535156 28.296875-46.171874 30.042969-46.917968l39.214843-15.203125c4.824219 5.304687 9.9375 10.90625 15.445313 16.917969-8.355469 6.296874-12.148437 17.78125-11.582031 28.71875-18.03125-.933594-32.898438 9.695312-32.898438 23.703124 0 14.074219 14.972656 24.644532 32.898438 23.703126-1.699219 32.773437 30.933594 44.585937 43.679687 19.003906 3.351563 6.117187 6.652344 14.976562 7.65625 26.980468h-34.4375c-8.890625 0-16.121093 7.230469-16.121093 16.121094v11.660156c0 8.578126 6.742187 15.59375 15.203124 16.074219l9.519532 41.542969zm13.332031-147.601562c-13.816407 3.941406-23.691407-2.648438-23.691407-7.484376 0-4.691406 9.65625-11.480468 23.6875-7.484374-1.953124 4.664062-2.054687 10.066406.003907 14.96875zm145.976562 77.203124c.617188 0 1.117188.5 1.117188 1.117188v11.664062c0 .617188-.5 1.117188-1.117188 1.117188-4.0625 0-124.714843 0-134.875 0-.617187 0-1.117187-.5-1.117187-1.117188v-11.664062c0-.617188.5-1.117188 1.117187-1.117188zm-51.210937-15h-9.589844v-38.402343c4.628906-1.929688 8.59375-5.609375 11.449219-10.476563 4.675781 1.984375 10.089843 3.078125 16.046875 2.921875-5.777344 6.378907-16.121094 21.09375-17.90625 45.957031zm.816406-100.96875c5.359375-1.519531 7.976562-1.273437 7.976562-1.273437 25.496094.019531 17.074219 23.371094-7.976562 16.238281 2.003906-4.777344 2.007812-10.175781 0-14.964844zm5.621094 37.691407c.214844-2.0625.289062-4.273438.175781-6.507813 5.664063.292969 11.554687-.550781 16.890625-2.757812-.550781 3.699218-.070312 7.152344 1.269531 10.339844-7.671875 2.1875-13.84375 1.265624-18.335937-1.074219zm36.242187 35.1875c-4.832031 0-11.429687-9.863281-7.480469-23.691407 4.777344 2.003907 10.175782 2.007813 14.960938 0 4 14.085938-2.78125 23.691407-7.480469 23.691407zm-4.410156-41.597657c0-2.433593 1.980469-4.410156 4.410156-4.410156 2.429688 0 4.410157 1.980469 4.410157 4.410156 0 2.429688-1.980469 4.410157-4.410157 4.410157-2.429687 0-4.410156-1.980469-4.410156-4.410157zm11.890625-17.910156c-3.464844-1.453125-7.347656-1.898437-11.246094-1.128906 1.453125-5.722656.183594-11.527344-3.101562-16.230469.015625-.035156.03125-.070312.046875-.105469 6.835937-15.105468 19.257812.066407 14.300781 17.464844zm3.726562-57.75c-5.882812 6.457032-12.222656 13.386719-18.9375 20.699219-4.710937 2.039063-8.539062 5.851563-11.171874 10.335937-4.117188-1.746093-8.90625-2.804687-14.097657-2.914062 8.230469-4.863281 10.753907-8.085938 32.882813-32.507812 6.414062 2.484374 4.875 1.886718 11.324218 4.386718zm8.316407-49.542968c0 2.210937-1.796875 4.007812-4.007813 4.007812h-31.289062c14.074218-11.160156 23.457031-27.390625 25.832031-45.421875 3.199219-.34375 6.429687-1.136719 9.464844-2.328125zm6.273437-72.929688c0 8.070312-7.179687 14.476562-15.121094 16.210938v-32.417969c8.09375 1.769531 15.121094 8.257812 15.121094 16.207031zm-160.851562 76.9375c-2.210938 0-4.007813-1.796875-4.007813-4.007812v-122.417969c0-43.722657 35.570313-79.292969 79.292969-79.292969s79.292969 35.570312 79.292969 79.292969v20.308593c-2.742188-1.082031-5.832031-1.882812-8.929688-2.269531-.578125-5.238281-4.226562-9.644531-9.316406-11.191406-11.378906-3.453125-23.703125-10.746094-34.242187-21.613281-5.398438-5.566406-14.386719-5.320313-19.480469.488281-9.839844 11.222656-36.273438 38.632813-69.109375 50.757813-5.183594 1.914062-8.664063 6.910156-8.664063 12.433593v22.960938c0 20.972656 9.4375 41.214843 26.480469 54.546875h-31.316406zm19.835937-54.550781v-21.75c27.457031-10.441407 53.613281-31.621094 72.808594-53.109375 11.59375 11.546875 25.125 19.605468 38.085937 23.796875v51.0625c0 30.96875-26.671874 58.199219-61.875 54.121093-30.066406-3.460937-49.019531-28.425781-49.019531-54.121093zm17.917969 87.097656c5.667969-2.199219 9.484375-7.785156 9.484375-13.851563v-9.375c17.566406 7.335938 38.226563 7.734376 55.996094.203126v9.167968c0 6.085938 3.8125 11.65625 9.488281 13.855469l7.226562 2.796875c-18.433593 20.265625-18.980468 20.933594-22.890624 23.699219-8.289063-24.730469-36.15625-24.160157-43.835938.894531-4.953125-3.207031-6.074219-4.671875-23.804688-24.160156zm0 0"/></svg>