<svg height="496pt" viewBox="0 0 496 496" width="496pt" xmlns="http://www.w3.org/2000/svg"><path d="m424 96v24l39.761719 9.921875c14.238281 3.597656 24.238281 16.398437 24.238281 31.039063v135.039062h-32v-40h-112v40h-32v-135.039062c0-14.640626 10-27.441407 24.238281-31.039063l39.761719-9.921875v-24c6.640625 5.039062 14.960938 8 24 8s17.359375-2.960938 24-8zm0 0" fill="#fcd770"/><path d="m400 488h-56v-232h112v232zm0 0" fill="#838f9b"/><path d="m152 488h-56v-112h24v-80h-24v-40h112v232zm0 0" fill="#838f9b"/><path d="m120 296v80h-112v-80l41.839844 34.878906c4 3.28125 8.960937 5.121094 14.160156 5.121094s10.160156-1.839844 14.160156-5.121094zm0 0" fill="#dfb28b"/><path d="m120 296-41.839844 34.878906c-4 3.28125-8.960937 5.121094-14.160156 5.121094s-10.160156-1.839844-14.160156-5.121094l-41.839844-34.878906zm0 0" fill="#cf9e76"/><path d="m144 136-8 72 16 16 16-16-8-72 16-16 39.761719 9.921875c14.238281 3.597656 24.238281 16.398437 24.238281 31.039063v135.039062h-32v-40h-112v40h-32v-135.039062c0-14.640626 10-27.441407 24.238281-31.039063l39.761719-9.921875zm0 0" fill="#5cd6b3"/><path d="m160 136 8 72-16 16-16-16 8-72zm0 0" fill="#ff826e"/><path d="m240 8h80c4.398438 0 8 3.601562 8 8v72l-20-16h-68c-4.398438 0-8-3.601562-8-8v-48c0-4.398438 3.601562-8 8-8zm0 0" fill="#e6e9ed"/><g fill="#f0d0b4"><path d="m440 48v16c0 13.039062-6.320312 24.71875-16 32-6.640625 5.039062-14.960938 8-24 8s-17.359375-2.960938-24-8c-9.679688-7.28125-16-18.960938-16-32v-16c0-22.078125 17.921875-40 40-40 11.039062 0 21.039062 4.480469 28.320312 11.679688 7.199219 7.28125 11.679688 17.28125 11.679688 28.320312zm0 0"/><path d="m176 96v24l-16 16h-16l-16-16v-24c6.640625 5.039062 14.960938 8 24 8s17.359375-2.960938 24-8zm0 0"/><path d="m192 48v16c0 13.039062-6.320312 24.71875-16 32-6.640625 5.039062-14.960938 8-24 8s-17.359375-2.960938-24-8c-9.679688-7.28125-16-18.960938-16-32v-16c0-22.078125 17.921875-40 40-40 11.039062 0 21.039062 4.480469 28.320312 11.679688 7.199219 7.28125 11.679688 17.28125 11.679688 28.320312zm0 0"/></g><path d="m217.703125 122.175781-33.703125-8.421875v-14.074218c9.792969-8.792969 16-21.503907 16-35.679688v-16c0-26.472656-21.527344-48-48-48s-48 21.527344-48 48v16c0 14.167969 6.207031 26.878906 16 35.679688v14.074218l-33.703125 8.429688c-17.839844 4.457031-30.296875 20.410156-30.296875 38.800781v127.015625h-56v96h88v112h128v-336h-16v88h-96v-88h-16v128h-16v-127.015625c0-11.03125 7.480469-20.609375 18.175781-23.289063l35.367188-8.832031 10.082031 10.082031-8 72 24.375 24.367188 24.375-24.375-8-72 10.082031-10.082031 35.367188 8.832031c10.695312 2.6875 18.175781 12.265625 18.175781 23.296875v135.015625h16v-135.015625c0-18.390625-12.457031-34.34375-30.296875-38.808594zm-119.800781 181.824219-24.878906 20.734375c-5.046876 4.203125-12.992188 4.210937-18.039063-.007813l-24.878906-20.726562zm-81.902344 9.078125 28.726562 23.9375c5.402344 4.503906 12.242188 6.984375 19.273438 6.984375s13.871094-2.480469 19.265625-6.976562l28.734375-23.945313v54.921875h-96zm88-49.078125h96v216h-40v-184h-16v184h-40v-96h24v-96h-24zm16-216c0-17.648438 14.351562-32 32-32s32 14.351562 32 32v16c0 17.648438-14.351562 32-32 32s-32-14.351562-32-32zm32 64c5.617188 0 10.984375-1.023438 16-2.800781v7.488281l-16 16-16-16v-7.488281c5.015625 1.777343 10.382812 2.800781 16 2.800781zm0 100.6875-7.625-7.625 7.625-68.613281 7.625 68.613281zm0 0"/><path d="m465.703125 122.175781-33.703125-8.421875v-14.074218c9.792969-8.792969 16-21.503907 16-35.679688v-16c0-26.472656-21.527344-48-48-48s-48 21.527344-48 48v16c0 14.167969 6.207031 26.878906 16 35.679688v14.074218l-33.703125 8.429688c-17.839844 4.457031-30.296875 20.410156-30.296875 38.800781v135.015625h16v-135.015625c0-11.03125 7.480469-20.609375 18.175781-23.289063l45.824219-11.449218v-17.046875c5.015625 1.785156 10.382812 2.800781 16 2.800781s10.984375-1.023438 16-2.800781v17.046875l45.824219 11.449218c10.695312 2.679688 18.175781 12.257813 18.175781 23.289063v135.015625h16v-135.015625c0-18.390625-12.457031-34.34375-30.296875-38.808594zm-97.703125-58.175781v-16c0-17.648438 14.351562-32 32-32s32 14.351562 32 32v16c0 17.648438-14.351562 32-32 32s-32-14.351562-32-32zm0 0"/><path d="m448 248h-96v-88h-16v336h128v-336h-16zm-40 232v-184h-16v184h-40v-216h96v216zm0 0"/><path d="m240 80h65.191406l30.808594 24.648438v-88.648438c0-8.824219-7.175781-16-16-16h-80c-8.824219 0-16 7.175781-16 16v48c0 8.824219 7.175781 16 16 16zm0-64h80v55.351562l-9.191406-7.351562h-70.808594zm0 0"/><path d="m256 32h16v16h-16zm0 0"/><path d="m288 32h16v16h-16zm0 0"/></svg>