<svg height="512" viewBox="0 0 60 46" width="512" xmlns="http://www.w3.org/2000/svg"><g id="Page-1" fill="none" fill-rule="evenodd"><g id="005---Truck"><g fill-rule="nonzero"><circle id="Oval" cx="44" cy="39" fill="#37474f" r="6"/><circle id="Oval" cx="11" cy="39" fill="#37474f" r="6"/><path id="Shape" d="m11 33c-3.3137085 0-6 2.6862915-6 6h-1c-1.65685425 0-3-1.3431458-3-3s1.34314575-3 3-3z" fill="#545c60"/><path id="Shape" d="m44 33c-3.3137085 0-6 2.6862915-6 6h-21c0-3.3137085-2.6862915-6-6-6z" fill="#7f8e94"/><path id="Shape" d="m41 33c-3.3137085 0-6 2.6862915-6 6h3c0-3.3137085 2.6862915-6 6-6z" fill="#545c60"/><path id="Shape" d="m59 26.19v10.81c-.0032948 1.1032019-.8967981 1.9967052-2 2h-7c0-3.3137085-2.6862915-6-6-6h-6v-25h6v16c.0032948 1.1032019.8967981 1.9967052 2 2h12.99c.0083152.0629727.0116589.1265024.01.19z" fill="#f5f5f5"/><path id="Shape" d="m43 26h3c-1.1032019-.0032948-1.9967052-.8967981-2-2v-16h-3v16c.0032948 1.1032019.8967981 1.9967052 2 2z" fill="#cfd8dc"/><path id="Shape" d="m58.99 26h-3c.0083152.0629727.0116589.1265024.01.19v10.81c-.0032948 1.1032019-.8967981 1.9967052-2 2h3c1.1032019-.0032948 1.9967052-.8967981 2-2v-10.81c.0016589-.0634976-.0016848-.1270273-.01-.19z" fill="#cfd8dc"/><path id="Shape" d="m58.99 26h-12.99c-1.1032019-.0032948-1.9967052-.8967981-2-2v-16h6.66c.8110481-.00001096 1.5418017.4897915 1.85 1.24l6.04 14.66c.2749678.66686.4241465 1.3788494.44 2.1z" fill="#02a9f4"/><path id="Shape" d="m58.55 23.9-6.04-14.66c-.3081983-.7502085-1.0389519-1.24001096-1.85-1.24h-3c.8110481-.00001096 1.5418017.4897915 1.85 1.24l6.04 14.66c.2749678.66686.4241465 1.3788494.44 2.1h3c-.0158535-.7211506-.1650322-1.43314-.44-2.1z" fill="#0377bc"/><path id="Shape" d="m38 3v30h-35c-1.10320187-.0032948-1.9967052-.8967981-2-2v-28c.0032948-1.10320187.89679813-1.9967052 2-2h33c1.1032019.0032948 1.9967052.89679813 2 2z" fill="#f44335"/><path id="Shape" d="m36 1h-3c1.1032019.0032948 1.9967052.89679813 2 2v30h3v-30c-.0032948-1.10320187-.8967981-1.9967052-2-2z" fill="#c81e1e"/></g><path id="Shape" d="m59 30h-2" stroke="#000" stroke-linecap="round" stroke-linejoin="round" stroke-width="2"/><path id="Shape" d="m59 34h-2" stroke="#000" stroke-linecap="round" stroke-linejoin="round" stroke-width="2"/><circle id="Oval" cx="44" cy="39" fill="#9e9e9e" fill-rule="nonzero" r="2"/><circle id="Oval" cx="11" cy="39" fill="#9e9e9e" fill-rule="nonzero" r="2"/><path id="Shape" d="m8 6h-3c-.55228475 0-1-.44771525-1-1s.44771525-1 1-1h3c.55228475 0 1 .44771525 1 1s-.44771525 1-1 1z" fill="#f5f5f5" fill-rule="nonzero"/><path id="Shape" d="m34 6h-22c-.5522847 0-1-.44771525-1-1s.4477153-1 1-1h22c.5522847 0 1 .44771525 1 1s-.4477153 1-1 1z" fill="#f5f5f5" fill-rule="nonzero"/><path id="Shape" d="m44 36c-1.6568542 0-3 1.3431458-3 3s1.3431458 3 3 3 3-1.3431458 3-3-1.3431458-3-3-3zm0 4c-.5522847 0-1-.4477153-1-1s.4477153-1 1-1 1 .4477153 1 1-.4477153 1-1 1z" fill="#000" fill-rule="nonzero"/><path id="Shape" d="m11 36c-1.65685425 0-3 1.3431458-3 3s1.34314575 3 3 3c1.6568542 0 3-1.3431458 3-3s-1.3431458-3-3-3zm0 4c-.5522847 0-1-.4477153-1-1s.4477153-1 1-1 1 .4477153 1 1-.4477153 1-1 1z" fill="#000" fill-rule="nonzero"/><path id="Shape" d="m53.435 8.857c-.4612501-1.12575882-1.5584164-1.8599706-2.775-1.857h-11.66v-4c0-1.65685425-1.3431458-3-3-3h-33c-1.65685425 0-3 1.34314575-3 3v28c.0030324.8844888.39868743 1.7219586 1.08 2.286-1.08357681 1.1624228-1.37449548 2.8568298-.74070521 4.3141134.63379028 1.4572835 2.07156538 2.3998607 3.66070521 2.3998866h.08c.49429504 3.441787 3.44289982 5.9971786 6.92 5.9971786 3.4771002 0 6.425705-2.5553916 6.92-5.9971786h19.16c.494295 3.441787 3.4428998 5.9971786 6.92 5.9971786s6.425705-2.5553916 6.92-5.9971786h6.08c1.6568542 0 3-1.3431458 3-3v-10.813c.0007231-.9146137-.1783377-1.8204508-.527-2.666zm-1.85.762 6.038 14.665c.090113.2329125.1626493.472249.217.716h-11.84c-.5522847 0-1-.4477153-1-1v-15.00000009l5.66.00000009c.4052801-.00017221.7705883.24428811.925.619zm-35.695 24.381h23.22c-1.0983326 1.0736686-1.8118599 2.4796337-2.03 4h-19.16c-.2181401-1.5203663-.9316674-2.9263314-2.03-4zm-13.89-31c0-.55228475.44771525-1 1-1h33c.5522847 0 1 .44771525 1 1v29h-34c-.55228475 0-1-.4477153-1-1zm.587 34.413c-.5709737-.5719529-.74161155-1.4313318-.4324705-2.1780398s1.03729968-1.2339804 1.8454705-1.2349602h2.11c-1.09833258 1.0736686-1.81185986 2.4796337-2.03 4h-.08c-.53056179.0012405-1.03949349-.2101841-1.413-.587zm8.413 6.587c-2.76142375 0-5-2.2385763-5-5s2.23857625-5 5-5c2.7614237 0 5 2.2385763 5 5-.0033061 2.7600532-2.2399468 4.9966939-5 5zm33 0c-2.7614237 0-5-2.2385763-5-5s2.2385763-5 5-5 5 2.2385763 5 5c-.0033061 2.7600532-2.2399468 4.9966939-5 5zm13-6h-6.08c-.4966526-3.4409267-3.4434178-5.9959255-6.92-6h-5v-23h4v15c0 1.6568542 1.3431458 3 3 3h12v2h-1c-.5522847 0-1 .4477153-1 1s.4477153 1 1 1h1v2h-1c-.5522847 0-1 .4477153-1 1s.4477153 1 1 1h1v2c0 .5522847-.4477153 1-1 1z" fill="#000" fill-rule="nonzero"/></g></g></svg>